<?plantuml 1.2026.2beta3?><svg xmlns="http://www.w3.org/2000/svg" xmlns:xlink="http://www.w3.org/1999/xlink" contentStyleType="text/css" data-diagram-type="DESCRIPTION" height="551px" preserveAspectRatio="none" style="width:2315px;height:551px;background:#FFFFFF;" version="1.1" viewBox="0 0 2315 551" width="2315px" zoomAndPan="magnify"><title>Smart Urban Mobility Management System (SUMMS) - Context Diagram</title><defs><filter height="300%" id="f1ehevqs3lxqmx" width="300%" x="-1" y="-1"><feGaussianBlur result="blurOut" stdDeviation="2"/><feColorMatrix in="blurOut" result="blurOut2" type="matrix" values="0 0 0 0 0 0 0 0 0 0 0 0 0 0 0 0 0 0 .4 0"/><feOffset dx="4" dy="4" in="blurOut2" result="blurOut3"/><feBlend in="SourceGraphic" in2="blurOut3" mode="normal"/></filter></defs><g><g class="title" data-source-line="1"><text fill="#000000" font-family="sans-serif" font-size="14" font-weight="bold" lengthAdjust="spacing" textLength="566.1729" x="867.7473" y="22.9951">Smart Urban Mobility Management System (SUMMS) - Context Diagram</text></g><!--entity SUMMS--><g class="entity" data-qualified-name="SUMMS" data-source-line="9" id="ent0002"><rect fill="#F1F1F1" filter="url(#f1ehevqs3lxqmx)" height="36.2969" rx="5" ry="5" style="stroke:#181818;stroke-width:0.5;" width="389.4482" x="924.54" y="284.0969"/><text fill="#000000" font-family="sans-serif" font-size="14" lengthAdjust="spacing" textLength="369.4482" x="934.54" y="307.092">Smart Urban Mobility Management System (SUMMS)</text></g><!--entity Users--><g class="entity" data-qualified-name="Users" data-source-line="12" id="ent0003"><ellipse cx="674.2608" cy="51.2969" fill="#F1F1F1" filter="url(#f1ehevqs3lxqmx)" rx="8" ry="8" style="stroke:#181818;stroke-width:0.5;"/><path d="M674.2608,59.2969 L674.2608,86.2969 M661.2608,67.2969 L687.2608,67.2969 M674.2608,86.2969 L661.2608,101.2969 M674.2608,86.2969 L687.2608,101.2969" fill="none" filter="url(#f1ehevqs3lxqmx)" style="stroke:#181818;stroke-width:0.5;"/><text fill="#000000" font-family="sans-serif" font-size="14" lengthAdjust="spacing" textLength="81.6416" x="633.44" y="118.792">Commuters</text></g><!--entity CityAdmins--><g class="entity" data-qualified-name="CityAdmins" data-source-line="13" id="ent0004"><ellipse cx="1393.2631" cy="475.8869" fill="#F1F1F1" filter="url(#f1ehevqs3lxqmx)" rx="8" ry="8" style="stroke:#181818;stroke-width:0.5;"/><path d="M1393.2631,483.8869 L1393.2631,510.8869 M1380.2631,491.8869 L1406.2631,491.8869 M1393.2631,510.8869 L1380.2631,525.8869 M1393.2631,510.8869 L1406.2631,525.8869" fill="none" filter="url(#f1ehevqs3lxqmx)" style="stroke:#181818;stroke-width:0.5;"/><text fill="#000000" font-family="sans-serif" font-size="14" lengthAdjust="spacing" textLength="134.8662" x="1325.83" y="543.382">City Administrators</text></g><!--entity SysAdmins--><g class="entity" data-qualified-name="SysAdmins" data-source-line="14" id="ent0005"><ellipse cx="1119.2564" cy="51.2969" fill="#F1F1F1" filter="url(#f1ehevqs3lxqmx)" rx="8" ry="8" style="stroke:#181818;stroke-width:0.5;"/><path d="M1119.2564,59.2969 L1119.2564,86.2969 M1106.2564,67.2969 L1132.2564,67.2969 M1119.2564,86.2969 L1106.2564,101.2969 M1119.2564,86.2969 L1132.2564,101.2969" fill="none" filter="url(#f1ehevqs3lxqmx)" style="stroke:#181818;stroke-width:0.5;"/><text fill="#000000" font-family="sans-serif" font-size="14" lengthAdjust="spacing" textLength="159.6328" x="1039.44" y="118.792">System Administrators</text></g><!--entity MobilityProviders--><g class="entity" data-qualified-name="MobilityProviders" data-source-line="17" id="ent0006"><rect fill="#F1F1F1" filter="url(#f1ehevqs3lxqmx)" height="52.5938" rx="5" ry="5" style="stroke:#181818;stroke-width:0.5;" width="214.8174" x="2088.85" y="480.7369"/><text fill="#000000" font-family="sans-serif" font-size="14" lengthAdjust="spacing" textLength="178.958" x="2098.85" y="503.732">Shared Mobility Providers</text><text fill="#000000" font-family="sans-serif" font-size="14" lengthAdjust="spacing" textLength="194.8174" x="2098.85" y="520.0289">(Bike, Scooter, Car Sharing)</text></g><!--entity TransitOperators--><g class="entity" data-qualified-name="TransitOperators" data-source-line="18" id="ent0007"><rect fill="#F1F1F1" filter="url(#f1ehevqs3lxqmx)" height="36.2969" rx="5" ry="5" style="stroke:#181818;stroke-width:0.5;" width="243.6855" x="272.42" y="488.8869"/><text fill="#000000" font-family="sans-serif" font-size="14" lengthAdjust="spacing" textLength="223.6855" x="282.42" y="511.882">Public Transportation Operators</text></g><!--entity ParkingOperators--><g class="entity" data-qualified-name="ParkingOperators" data-source-line="19" id="ent0008"><rect fill="#F1F1F1" filter="url(#f1ehevqs3lxqmx)" height="36.2969" rx="5" ry="5" style="stroke:#181818;stroke-width:0.5;" width="146.9434" x="615.79" y="488.8869"/><text fill="#000000" font-family="sans-serif" font-size="14" lengthAdjust="spacing" textLength="126.9434" x="625.79" y="511.882">Parking Operators</text></g><!--entity PaymentSystem--><g class="entity" data-qualified-name="PaymentSystem" data-source-line="22" id="ent0009"><rect fill="#F1F1F1" filter="url(#f1ehevqs3lxqmx)" height="36.2969" rx="5" ry="5" style="stroke:#181818;stroke-width:0.5;" width="138.5762" x="999.97" y="488.8869"/><text fill="#000000" font-family="sans-serif" font-size="14" lengthAdjust="spacing" textLength="118.5762" x="1009.97" y="511.882">Payment System</text></g><!--entity MapServices--><g class="entity" data-qualified-name="MapServices" data-source-line="23" id="ent0010"><rect fill="#F1F1F1" filter="url(#f1ehevqs3lxqmx)" height="36.2969" rx="5" ry="5" style="stroke:#181818;stroke-width:0.5;" width="207.7148" x="1724.4" y="488.8869"/><text fill="#000000" font-family="sans-serif" font-size="14" lengthAdjust="spacing" textLength="187.7148" x="1734.4" y="511.882">Mapping &amp; Traffic Services</text></g><!--entity NotificationService--><g class="entity" data-qualified-name="NotificationService" data-source-line="24" id="ent0011"><rect fill="#F1F1F1" filter="url(#f1ehevqs3lxqmx)" height="52.5938" rx="5" ry="5" style="stroke:#181818;stroke-width:0.5;" width="156.5205" x="7" y="480.7369"/><text fill="#000000" font-family="sans-serif" font-size="14" lengthAdjust="spacing" textLength="136.5205" x="17" y="503.732">Notification Service</text><text fill="#000000" font-family="sans-serif" font-size="14" lengthAdjust="spacing" textLength="93.2354" x="17" y="520.0289">(SMS / Email)</text></g><!--entity MonitoringSystems--><g class="entity" data-qualified-name="MonitoringSystems" data-source-line="25" id="ent0012"><rect fill="#F1F1F1" filter="url(#f1ehevqs3lxqmx)" height="52.5938" rx="5" ry="5" style="stroke:#181818;stroke-width:0.5;" width="208.1387" x="1299.19" y="56.1469"/><text fill="#000000" font-family="sans-serif" font-size="14" lengthAdjust="spacing" textLength="138.8174" x="1309.19" y="79.142">Monitoring Systems</text><text fill="#000000" font-family="sans-serif" font-size="14" lengthAdjust="spacing" textLength="188.1387" x="1309.19" y="95.4389">(Vehicles, Parking, Transit)</text></g><!--link Users to SUMMS--><g class="link" data-entity-1="ent0003" data-entity-2="ent0002" data-link-type="dependency" data-source-line="29" id="lnk13"><path d="M654.18,122.4869 C640.06,156.0369 627.92,203.6769 654.26,234.0969 C689.7,275.0169 807.4301,291.2091 918.3501,297.6491" fill="none" id="Users-to-SUMMS" style="stroke:#181818;stroke-width:1;"/><polygon fill="#181818" points="924.34,297.9969,915.587,293.4819,919.3484,297.7071,915.1233,301.4685,924.34,297.9969" style="stroke:#181818;stroke-width:1;"/><text fill="#000000" font-family="sans-serif" font-size="13" lengthAdjust="spacing" textLength="78.1587" x="671.2021" y="185.1638">Search trips</text><text fill="#000000" font-family="sans-serif" font-size="13" lengthAdjust="spacing" textLength="110.043" x="655.26" y="200.2966">Reserve vehicles</text><text fill="#000000" font-family="sans-serif" font-size="13" lengthAdjust="spacing" textLength="85.6807" x="667.4412" y="215.4294">Book parking</text><text fill="#000000" font-family="sans-serif" font-size="13" lengthAdjust="spacing" textLength="103.5239" x="658.5195" y="230.5622">Make payments</text></g><!--link SUMMS to Users--><g class="link" data-entity-1="ent0002" data-entity-2="ent0003" data-link-type="dependency" data-source-line="30" id="lnk14"><path d="M1079.15,283.6069 C1049.26,270.3269 1007.51,251.4969 971.26,234.0969 C879.01,189.7969 777.6697,137.5119 720.6197,107.7519" fill="none" id="SUMMS-to-Users" style="stroke:#181818;stroke-width:1;"/><polygon fill="#181818" points="715.3,104.9769,721.4296,112.6859,719.7331,107.2894,725.1296,105.5929,715.3,104.9769" style="stroke:#181818;stroke-width:1;"/><text fill="#000000" font-family="sans-serif" font-size="13" lengthAdjust="spacing" textLength="100.1343" x="982.9875" y="192.6638">Availability info</text><text fill="#000000" font-family="sans-serif" font-size="13" lengthAdjust="spacing" textLength="121.5894" x="972.26" y="207.7966">Recommendations</text><text fill="#000000" font-family="sans-serif" font-size="13" lengthAdjust="spacing" textLength="81.3643" x="992.3725" y="222.9294">Notifications</text></g><!--link CityAdmins to SUMMS--><g class="link" data-entity-1="ent0004" data-entity-2="ent0002" data-link-type="dependency" data-source-line="32" id="lnk15"><path d="M1418.07,467.0469 C1433.35,437.5869 1446.21,397.6869 1424.26,370.3869 C1405.37,346.8869 1351.2086,332.1119 1289.3186,321.8119" fill="none" id="CityAdmins-to-SUMMS" style="stroke:#181818;stroke-width:1;"/><polygon fill="#181818" points="1283.4,320.8269,1291.6212,326.2501,1288.3322,321.6477,1292.9346,318.3586,1283.4,320.8269" style="stroke:#181818;stroke-width:1;"/><text fill="#000000" font-family="sans-serif" font-size="13" lengthAdjust="spacing" textLength="93.374" x="1458.0896" y="383.4538">View analytics</text><text fill="#000000" font-family="sans-serif" font-size="13" lengthAdjust="spacing" textLength="137.0332" x="1436.26" y="398.5866">Monitor performance</text><text fill="#000000" font-family="sans-serif" font-size="13" lengthAdjust="spacing" textLength="74.439" x="1467.5571" y="413.7194">Set policies</text></g><!--link SUMMS to CityAdmins--><g class="link" data-entity-1="ent0002" data-entity-2="ent0004" data-link-type="dependency" data-source-line="33" id="lnk16"><path d="M1155.71,320.8169 C1180.39,333.3469 1213.3,351.3069 1240.26,370.3869 C1281.55,399.6169 1319.9525,434.1809 1349.7225,462.7709" fill="none" id="SUMMS-to-CityAdmins" style="stroke:#181818;stroke-width:1;"/><polygon fill="#181818" points="1354.05,466.9269,1350.3294,457.8078,1350.4437,463.4635,1344.788,463.5779,1354.05,466.9269" style="stroke:#181818;stroke-width:1;"/><text fill="#000000" font-family="sans-serif" font-size="13" lengthAdjust="spacing" textLength="50.4512" x="1311.7996" y="390.9538">Reports</text><text fill="#000000" font-family="sans-serif" font-size="13" lengthAdjust="spacing" textLength="77.5303" x="1298.26" y="406.0866">Dashboards</text></g><!--link SysAdmins to SUMMS--><g class="link" data-entity-1="ent0005" data-entity-2="ent0002" data-link-type="dependency" data-source-line="35" id="lnk17"><path d="M1119.26,122.3869 C1119.26,170.0969 1119.26,242.8969 1119.26,277.7469" fill="none" id="SysAdmins-to-SUMMS" style="stroke:#181818;stroke-width:1;"/><polygon fill="#181818" points="1119.26,283.7469,1123.26,274.7469,1119.26,278.7469,1115.26,274.7469,1119.26,283.7469" style="stroke:#181818;stroke-width:1;"/><text fill="#000000" font-family="sans-serif" font-size="13" lengthAdjust="spacing" textLength="114.4229" x="1120.8218" y="200.1638">Configure system</text><text fill="#000000" font-family="sans-serif" font-size="13" lengthAdjust="spacing" textLength="115.5464" x="1120.26" y="215.2966">Maintain platform</text></g><!--link SUMMS to MobilityProviders--><g class="link" data-entity-1="ent0002" data-entity-2="ent0006" data-link-type="dependency" data-source-line="37" id="lnk18"><path d="M1320.0392,304.6171 C1546.2792,308.3971 1898.43,322.0369 2023.26,370.3869 C2085.01,394.3069 2138.3819,443.7722 2169.0419,475.9622" fill="none" id="SUMMS-MobilityProviders" style="stroke:#181818;stroke-width:1;"/><polygon fill="#181818" points="1314.04,304.5169,1322.9719,308.6667,1319.0393,304.6004,1323.1056,300.6678,1314.04,304.5169" style="stroke:#181818;stroke-width:1;"/><polygon fill="#181818" points="2173.18,480.3069,2169.8692,471.0312,2169.7316,476.6863,2164.0764,476.5487,2173.18,480.3069" style="stroke:#181818;stroke-width:1;"/><text fill="#000000" font-family="sans-serif" font-size="13" lengthAdjust="spacing" textLength="122.3257" x="2101.26" y="383.4538">Vehicle availability</text><text fill="#000000" font-family="sans-serif" font-size="13" lengthAdjust="spacing" textLength="84.481" x="2120.1824" y="398.5866">Reservations</text><text fill="#000000" font-family="sans-serif" font-size="13" lengthAdjust="spacing" textLength="65.5967" x="2129.6245" y="413.7194">Fleet data</text></g><!--link SUMMS to TransitOperators--><g class="link" data-entity-1="ent0002" data-entity-2="ent0007" data-link-type="dependency" data-source-line="38" id="lnk19"><path d="M918.2418,317.4384 C789.2218,328.4784 638.88,345.7369 577.26,370.3869 C507.86,398.1569 445.4517,454.6334 415.3017,484.5134" fill="none" id="SUMMS-TransitOperators" style="stroke:#181818;stroke-width:1;"/><polygon fill="#181818" points="924.22,316.9269,914.9117,313.7087,919.2382,317.3532,915.5938,321.6796,924.22,316.9269" style="stroke:#181818;stroke-width:1;"/><polygon fill="#181818" points="411.04,488.7369,420.2482,485.2427,414.5914,485.2173,414.6168,479.5605,411.04,488.7369" style="stroke:#181818;stroke-width:1;"/><text fill="#000000" font-family="sans-serif" font-size="13" lengthAdjust="spacing" textLength="66.5107" x="604.6948" y="390.9538">Schedules</text><text fill="#000000" font-family="sans-serif" font-size="13" lengthAdjust="spacing" textLength="119.3804" x="578.26" y="406.0866">Real-time updates</text></g><!--link SUMMS to ParkingOperators--><g class="link" data-entity-1="ent0002" data-entity-2="ent0008" data-link-type="dependency" data-source-line="39" id="lnk20"><path d="M942.428,321.7089 C865.368,332.4989 790.79,347.8169 760.26,370.3869 C720.08,400.1069 702.1045,453.5134 694.6045,482.8834" fill="none" id="SUMMS-ParkingOperators" style="stroke:#181818;stroke-width:1;"/><polygon fill="#181818" points="948.37,320.8769,938.9023,318.1635,943.4183,321.5702,940.0116,326.0862,948.37,320.8769" style="stroke:#181818;stroke-width:1;"/><polygon fill="#181818" points="693.12,488.6969,699.2224,480.9664,694.3571,483.8523,691.4712,478.987,693.12,488.6969" style="stroke:#181818;stroke-width:1;"/><text fill="#000000" font-family="sans-serif" font-size="13" lengthAdjust="spacing" textLength="123.6079" x="761.26" y="383.4538">Parking availability</text><text fill="#000000" font-family="sans-serif" font-size="13" lengthAdjust="spacing" textLength="84.481" x="780.8235" y="398.5866">Reservations</text><text fill="#000000" font-family="sans-serif" font-size="13" lengthAdjust="spacing" textLength="44.0464" x="801.0408" y="413.7194">Pricing</text></g><!--link SUMMS to PaymentSystem--><g class="link" data-entity-1="ent0002" data-entity-2="ent0009" data-link-type="dependency" data-source-line="41" id="lnk21"><path d="M1113.65,320.8169 C1109.43,334.3069 1103.65,353.4369 1099.26,370.3869 C1088.31,412.6469 1079.0306,457.0742 1073.8406,482.9342" fill="none" id="SUMMS-to-PaymentSystem" style="stroke:#181818;stroke-width:1;"/><polygon fill="#181818" points="1072.66,488.8169,1078.3527,480.7799,1073.6439,483.9146,1070.5092,479.2057,1072.66,488.8169" style="stroke:#181818;stroke-width:1;"/><text fill="#000000" font-family="sans-serif" font-size="13" lengthAdjust="spacing" textLength="118.1045" x="1100.26" y="398.4538">Payment requests</text></g><!--link PaymentSystem to SUMMS--><g class="link" data-entity-1="ent0009" data-entity-2="ent0002" data-link-type="dependency" data-source-line="42" id="lnk22"><path d="M1021.68,488.5169 C965.06,464.9269 882.42,420.1469 918.26,370.3869 C935.52,346.4369 956.0663,332.9336 983.8863,322.8936" fill="none" id="PaymentSystem-to-SUMMS" style="stroke:#181818;stroke-width:1;"/><polygon fill="#181818" points="989.53,320.8569,979.7066,320.1496,984.8269,322.5542,982.4223,327.6745,989.53,320.8569" style="stroke:#181818;stroke-width:1;"/><text fill="#000000" font-family="sans-serif" font-size="13" lengthAdjust="spacing" textLength="144.0347" x="919.26" y="398.4538">Payment confirmation</text></g><!--link SUMMS to NotificationService--><g class="link" data-entity-1="ent0002" data-entity-2="ent0011" data-link-type="dependency" data-source-line="44" id="lnk23"><path d="M924.11,304.7369 C777.19,309.8469 571.93,325.5269 397.26,370.3869 C298.58,395.7369 196.5148,445.6947 136.9848,477.4247" fill="none" id="SUMMS-to-NotificationService" style="stroke:#181818;stroke-width:1;"/><polygon fill="#181818" points="131.69,480.2469,141.5137,479.5435,136.1024,477.895,137.7508,472.4837,131.69,480.2469" style="stroke:#181818;stroke-width:1;"/><text fill="#000000" font-family="sans-serif" font-size="13" lengthAdjust="spacing" textLength="73.6646" x="398.26" y="398.4538">Send alerts</text></g><!--link NotificationService to Users--><g class="link" data-entity-1="ent0011" data-entity-2="ent0003" data-link-type="dependency" data-source-line="45" id="lnk24"><path d="M112.52,480.3969 C142.95,452.2369 194.13,406.2469 241.26,370.3869 C379.41,265.2669 549.505,159.1068 627.925,111.3668" fill="none" id="NotificationService-to-Users" style="stroke:#181818;stroke-width:1;"/><polygon fill="#181818" points="633.05,108.2469,623.2825,109.5102,628.7792,110.8469,627.4425,116.3435,633.05,108.2469" style="stroke:#181818;stroke-width:1;"/><text fill="#000000" font-family="sans-serif" font-size="13" lengthAdjust="spacing" textLength="63.7495" x="358.26" y="306.8038">Messages</text></g><!--link MonitoringSystems to SUMMS--><g class="link" data-entity-1="ent0012" data-entity-2="ent0002" data-link-type="dependency" data-source-line="47" id="lnk25"><path d="M1384.02,109.1569 C1358.73,141.5969 1311.56,197.5469 1261.26,234.0969 C1232.58,254.9269 1201.9663,269.6525 1173.3063,281.3325" fill="none" id="MonitoringSystems-to-SUMMS" style="stroke:#181818;stroke-width:1;"/><polygon fill="#181818" points="1167.75,283.5969,1177.5941,283.9045,1172.3803,281.7099,1174.5749,276.4961,1167.75,283.5969" style="stroke:#181818;stroke-width:1;"/><text fill="#000000" font-family="sans-serif" font-size="13" lengthAdjust="spacing" textLength="140.1626" x="1370.98" y="200.1638">Real-time status data</text><text fill="#000000" font-family="sans-serif" font-size="13" lengthAdjust="spacing" textLength="223.6025" x="1329.26" y="215.2966">(vehicle location, parking sensors)</text></g><!--link SUMMS to MapServices--><g class="link" data-entity-1="ent0002" data-entity-2="ent0010" data-link-type="dependency" data-source-line="49" id="lnk26"><path d="M1314.22,306.8569 C1528.98,312.9069 1849.2,328.8569 1887.26,370.3869 C1919.36,405.4169 1878.4573,456.3792 1850.9673,484.3292" fill="none" id="SUMMS-to-MapServices" style="stroke:#181818;stroke-width:1;"/><polygon fill="#181818" points="1846.76,488.6069,1855.9227,484.9952,1850.2661,485.0421,1850.2191,479.3855,1846.76,488.6069" style="stroke:#181818;stroke-width:1;"/><text fill="#000000" font-family="sans-serif" font-size="13" lengthAdjust="spacing" textLength="98.9282" x="1899.26" y="390.9538">Route requests</text><text fill="#000000" font-family="sans-serif" font-size="13" lengthAdjust="spacing" textLength="60.8486" x="1918.2998" y="406.0866">Map data</text></g><!--link MapServices to SUMMS--><g class="link" data-entity-1="ent0010" data-entity-2="ent0002" data-link-type="dependency" data-source-line="50" id="lnk27"><path d="M1805.73,488.4869 C1766.32,458.7969 1681.25,399.1069 1599.26,370.3869 C1508.53,338.6169 1409.1505,322.4216 1320.3005,313.5716" fill="none" id="MapServices-to-SUMMS" style="stroke:#181818;stroke-width:1;"/><polygon fill="#181818" points="1314.33,312.9769,1322.8892,317.8492,1319.3054,313.4725,1323.6821,309.8886,1314.33,312.9769" style="stroke:#181818;stroke-width:1;"/><text fill="#000000" font-family="sans-serif" font-size="13" lengthAdjust="spacing" textLength="34.2075" x="1737.2441" y="390.9538">Maps</text><text fill="#000000" font-family="sans-serif" font-size="13" lengthAdjust="spacing" textLength="112.1758" x="1698.26" y="406.0866">Traffic conditions</text></g><?plantuml-src bLJ1Rjim3BtxAuWUjXP8iErQ30FQj0Dsy5hKQq-vC3RZ4B4bJvBJPby_Ih8IfIq6x130aHuV7nz9ENOTGTMZSV1eLgYWr2lksEsXH8KjzQGSL7lhg8Vpwh4igmkOmq8hHoyERXXRWtrHs2sh0UKJ3DKELTlHWnvLiz16aO4ldpE4tM2ZdrcruCn8sONI3LaQ19t33QfjEYq-9YqhpuvcNnpomTd_bN46Q25yUjhR5qT6OGUFbemji7RQmDb2z_qe5pQ0Jwyy-LNJisBh3CfP1FdpS7n0JcdVmShD1CqLt9aM5Vz1nrfkylesQAWvbdPlz8uRqRHKvzUyfHbKjTR2CeC56l1mSJaMce8ECJdn_RZgk8PVOhKTj74XDTmDb6aDb-mEXoVnQBQ-dwSHq-an8YyoclAAPP-rQQ88H_4anvOu33xZ1wzhlHRn5PaTrnHJotNwdqVzr8u56ykR0E9TLLRm2Mvxv2wQbUCcs4bohLWAylcdCeJaYJPSTsHdgUvPiYmr80MbqiME7x96HiOaTBe8ymLpm-t6pR_5sOHB4OgctiYoy2297cH5p8vWD-LRgckjjp34f4jLufRaN_3D5f5ZBcoH_1AkTb8cJXF4QgqzPIrpJh9FGSXIvVMBhkD8lnNtnFGCicBTtd4jeLEP84rVQzEZyWvNv63GCc9CkQICzn8Uo4-UCDoWtQmqcaOo7nOau5DEUNtMt8w6m0OhVT6idFnWwD3vlCMKvgkFUpFxNdUq3p2p8vcRRFZUaGWNLp1dUxq8laFrXfenDEE1i9ixxWd6GI8FzORGrniXeMbr_gNZteXpgYqowquM8z34tJ7qUoGhZJy5vEubQErTb0xv93drEyCVXb0rW1r9Yuht4Fc8bMIjlBdIlpT3VwBaw9ML9sUqmMfPfMcqeTCnnonDDrXILdoxoFLck-uvjRpN1nlyP0onWpai5o7d0aklY9ZISB3zBm00?></g></svg>