<?plantuml 1.2026.2beta3?><svg xmlns="http://www.w3.org/2000/svg" xmlns:xlink="http://www.w3.org/1999/xlink" contentStyleType="text/css" data-diagram-type="CLASS" height="985px" preserveAspectRatio="none" style="width:1056px;height:985px;background:#FFFFFF;" version="1.1" viewBox="0 0 1056 985" width="1056px" zoomAndPan="magnify"><title>SUMMS - Domain Model</title><defs/><g><g class="title" data-source-line="1"><text fill="#000000" font-family="sans-serif" font-size="14" font-weight="bold" lengthAdjust="spacing" textLength="187.7354" x="427.3365" y="22.9951">SUMMS - Domain Model</text></g><!--class User--><g class="entity" data-qualified-name="User" data-source-line="7" id="ent0002"><rect fill="#F1F1F1" height="96.8906" rx="2.5" ry="2.5" style="stroke:#181818;stroke-width:0.5;" width="167.1211" x="801.02" y="326.8869"/><ellipse cx="864.3755" cy="342.8869" fill="#ADD1B2" rx="11" ry="11" style="stroke:#181818;stroke-width:1;"/><path d="M867.3442,348.5275 Q866.7661,348.8244 866.1255,348.965 Q865.4848,349.1213 864.7817,349.1213 Q862.2817,349.1213 860.9536,347.4806 Q859.6411,345.8244 859.6411,342.6994 Q859.6411,339.5744 860.9536,337.9181 Q862.2817,336.2619 864.7817,336.2619 Q865.4848,336.2619 866.1255,336.4181 Q866.7817,336.5744 867.3442,336.8713 L867.3442,339.59 Q866.7192,339.0119 866.1255,338.7463 Q865.5317,338.465 864.9067,338.465 Q863.563,338.465 862.8755,339.5431 Q862.188,340.6056 862.188,342.6994 Q862.188,344.7931 862.8755,345.8713 Q863.563,346.9338 864.9067,346.9338 Q865.5317,346.9338 866.1255,346.6681 Q866.7192,346.3869 867.3442,345.8088 L867.3442,348.5275 Z " fill="#000000"/><text fill="#000000" font-family="sans-serif" font-size="14" lengthAdjust="spacing" textLength="31.9102" x="884.8755" y="347.7336">User</text><line style="stroke:#181818;stroke-width:0.5;" x1="802.02" x2="967.1411" y1="358.8869" y2="358.8869"/><text fill="#000000" font-family="sans-serif" font-size="14" lengthAdjust="spacing" textLength="43.5518" x="807.02" y="375.882">userId</text><text fill="#000000" font-family="sans-serif" font-size="14" lengthAdjust="spacing" textLength="39.7031" x="807.02" y="392.1789">name</text><text fill="#000000" font-family="sans-serif" font-size="14" lengthAdjust="spacing" textLength="155.1211" x="807.02" y="408.4757">preferredMobilityType</text><line style="stroke:#181818;stroke-width:0.5;" x1="802.02" x2="967.1411" y1="415.7775" y2="415.7775"/></g><!--class CityAdministrator--><g class="entity" data-qualified-name="CityAdministrator" data-source-line="13" id="ent0003"><rect fill="#F1F1F1" height="80.5938" rx="2.5" ry="2.5" style="stroke:#181818;stroke-width:0.5;" width="155.1221" x="225.02" y="44.2969"/><ellipse cx="240.02" cy="60.2969" fill="#ADD1B2" rx="11" ry="11" style="stroke:#181818;stroke-width:1;"/><path d="M242.9888,65.9375 Q242.4106,66.2344 241.77,66.375 Q241.1294,66.5313 240.4263,66.5313 Q237.9263,66.5313 236.5981,64.8906 Q235.2856,63.2344 235.2856,60.1094 Q235.2856,56.9844 236.5981,55.3281 Q237.9263,53.6719 240.4263,53.6719 Q241.1294,53.6719 241.77,53.8281 Q242.4263,53.9844 242.9888,54.2813 L242.9888,57 Q242.3638,56.4219 241.77,56.1563 Q241.1763,55.875 240.5513,55.875 Q239.2075,55.875 238.52,56.9531 Q237.8325,58.0156 237.8325,60.1094 Q237.8325,62.2031 238.52,63.2813 Q239.2075,64.3438 240.5513,64.3438 Q241.1763,64.3438 241.77,64.0781 Q242.3638,63.7969 242.9888,63.2188 L242.9888,65.9375 Z " fill="#000000"/><text fill="#000000" font-family="sans-serif" font-size="14" lengthAdjust="spacing" textLength="123.1221" x="254.02" y="65.1436">CityAdministrator</text><line style="stroke:#181818;stroke-width:0.5;" x1="226.02" x2="379.1421" y1="76.2969" y2="76.2969"/><text fill="#000000" font-family="sans-serif" font-size="14" lengthAdjust="spacing" textLength="56.8818" x="231.02" y="93.292">adminId</text><text fill="#000000" font-family="sans-serif" font-size="14" lengthAdjust="spacing" textLength="39.7031" x="231.02" y="109.5889">name</text><line style="stroke:#181818;stroke-width:0.5;" x1="226.02" x2="379.1421" y1="116.8906" y2="116.8906"/></g><!--class SystemAdministrator--><g class="entity" data-qualified-name="SystemAdministrator" data-source-line="18" id="ent0004"><rect fill="#F1F1F1" height="80.5938" rx="2.5" ry="2.5" style="stroke:#181818;stroke-width:0.5;" width="179.8887" x="415.64" y="44.2969"/><ellipse cx="430.64" cy="60.2969" fill="#ADD1B2" rx="11" ry="11" style="stroke:#181818;stroke-width:1;"/><path d="M433.6088,65.9375 Q433.0306,66.2344 432.39,66.375 Q431.7494,66.5313 431.0463,66.5313 Q428.5463,66.5313 427.2181,64.8906 Q425.9056,63.2344 425.9056,60.1094 Q425.9056,56.9844 427.2181,55.3281 Q428.5463,53.6719 431.0463,53.6719 Q431.7494,53.6719 432.39,53.8281 Q433.0463,53.9844 433.6088,54.2813 L433.6088,57 Q432.9838,56.4219 432.39,56.1563 Q431.7963,55.875 431.1713,55.875 Q429.8275,55.875 429.14,56.9531 Q428.4525,58.0156 428.4525,60.1094 Q428.4525,62.2031 429.14,63.2813 Q429.8275,64.3438 431.1713,64.3438 Q431.7963,64.3438 432.39,64.0781 Q432.9838,63.7969 433.6088,63.2188 L433.6088,65.9375 Z " fill="#000000"/><text fill="#000000" font-family="sans-serif" font-size="14" lengthAdjust="spacing" textLength="147.8887" x="444.64" y="65.1436">SystemAdministrator</text><line style="stroke:#181818;stroke-width:0.5;" x1="416.64" x2="594.5287" y1="76.2969" y2="76.2969"/><text fill="#000000" font-family="sans-serif" font-size="14" lengthAdjust="spacing" textLength="56.8818" x="421.64" y="93.292">adminId</text><text fill="#000000" font-family="sans-serif" font-size="14" lengthAdjust="spacing" textLength="39.7031" x="421.64" y="109.5889">name</text><line style="stroke:#181818;stroke-width:0.5;" x1="416.64" x2="594.5287" y1="116.8906" y2="116.8906"/></g><!--class City--><g class="entity" data-qualified-name="City" data-source-line="25" id="ent0005"><rect fill="#F1F1F1" height="80.5938" rx="2.5" ry="2.5" style="stroke:#181818;stroke-width:0.5;" width="59.4395" x="354.86" y="525.2269"/><ellipse cx="369.86" cy="541.2269" fill="#ADD1B2" rx="11" ry="11" style="stroke:#181818;stroke-width:1;"/><path d="M372.8288,546.8675 Q372.2506,547.1644 371.61,547.305 Q370.9694,547.4613 370.2663,547.4613 Q367.7663,547.4613 366.4381,545.8206 Q365.1256,544.1644 365.1256,541.0394 Q365.1256,537.9144 366.4381,536.2581 Q367.7663,534.6019 370.2663,534.6019 Q370.9694,534.6019 371.61,534.7581 Q372.2663,534.9144 372.8288,535.2113 L372.8288,537.93 Q372.2038,537.3519 371.61,537.0863 Q371.0163,536.805 370.3913,536.805 Q369.0475,536.805 368.36,537.8831 Q367.6725,538.9456 367.6725,541.0394 Q367.6725,543.1331 368.36,544.2113 Q369.0475,545.2738 370.3913,545.2738 Q371.0163,545.2738 371.61,545.0081 Q372.2038,544.7269 372.8288,544.1488 L372.8288,546.8675 Z " fill="#000000"/><text fill="#000000" font-family="sans-serif" font-size="14" lengthAdjust="spacing" textLength="27.4395" x="383.86" y="546.0736">City</text><line style="stroke:#181818;stroke-width:0.5;" x1="355.86" x2="413.2995" y1="557.2269" y2="557.2269"/><text fill="#000000" font-family="sans-serif" font-size="14" lengthAdjust="spacing" textLength="38.377" x="360.86" y="574.222">cityId</text><text fill="#000000" font-family="sans-serif" font-size="14" lengthAdjust="spacing" textLength="39.7031" x="360.86" y="590.5189">name</text><line style="stroke:#181818;stroke-width:0.5;" x1="355.86" x2="413.2995" y1="597.8206" y2="597.8206"/></g><!--class MobilityProvider--><g class="entity" data-qualified-name="MobilityProvider" data-source-line="32" id="ent0006"><rect fill="#F1F1F1" height="80.5938" rx="2.5" ry="2.5" style="stroke:#181818;stroke-width:0.5;" width="145.1689" x="7" y="525.2269"/><ellipse cx="22" cy="541.2269" fill="#ADD1B2" rx="11" ry="11" style="stroke:#181818;stroke-width:1;"/><path d="M24.9688,546.8675 Q24.3906,547.1644 23.75,547.305 Q23.1094,547.4613 22.4063,547.4613 Q19.9063,547.4613 18.5781,545.8206 Q17.2656,544.1644 17.2656,541.0394 Q17.2656,537.9144 18.5781,536.2581 Q19.9063,534.6019 22.4063,534.6019 Q23.1094,534.6019 23.75,534.7581 Q24.4063,534.9144 24.9688,535.2113 L24.9688,537.93 Q24.3438,537.3519 23.75,537.0863 Q23.1563,536.805 22.5313,536.805 Q21.1875,536.805 20.5,537.8831 Q19.8125,538.9456 19.8125,541.0394 Q19.8125,543.1331 20.5,544.2113 Q21.1875,545.2738 22.5313,545.2738 Q23.1563,545.2738 23.75,545.0081 Q24.3438,544.7269 24.9688,544.1488 L24.9688,546.8675 Z " fill="#000000"/><text fill="#000000" font-family="sans-serif" font-size="14" lengthAdjust="spacing" textLength="113.1689" x="36" y="546.0736">MobilityProvider</text><line style="stroke:#181818;stroke-width:0.5;" x1="8" x2="151.1689" y1="557.2269" y2="557.2269"/><text fill="#000000" font-family="sans-serif" font-size="14" lengthAdjust="spacing" textLength="71.6543" x="13" y="574.222">providerId</text><text fill="#000000" font-family="sans-serif" font-size="14" lengthAdjust="spacing" textLength="39.7031" x="13" y="590.5189">name</text><line style="stroke:#181818;stroke-width:0.5;" x1="8" x2="151.1689" y1="597.8206" y2="597.8206"/></g><!--class Vehicle--><g class="entity" data-qualified-name="Vehicle" data-source-line="37" id="ent0007"><rect fill="#F1F1F1" height="96.8906" rx="2.5" ry="2.5" style="stroke:#181818;stroke-width:0.5;" width="83.1533" x="152.01" y="707.2669"/><ellipse cx="167.01" cy="723.2669" fill="#A9DCDF" rx="11" ry="11" style="stroke:#181818;stroke-width:1;"/><path d="M167.1194,718.6106 L165.9631,723.6888 L168.2913,723.6888 L167.1194,718.6106 Z M165.635,716.3763 L168.6194,716.3763 L171.9788,728.7669 L169.5256,728.7669 L168.76,725.7044 L165.4788,725.7044 L164.7288,728.7669 L162.2913,728.7669 L165.635,716.3763 Z " fill="#000000"/><text fill="#000000" font-family="sans-serif" font-size="14" font-style="italic" lengthAdjust="spacing" textLength="51.1533" x="181.01" y="728.1136">Vehicle</text><line style="stroke:#181818;stroke-width:0.5;" x1="153.01" x2="234.1633" y1="739.2669" y2="739.2669"/><text fill="#000000" font-family="sans-serif" font-size="14" lengthAdjust="spacing" textLength="62.877" x="158.01" y="756.262">vehicleId</text><text fill="#000000" font-family="sans-serif" font-size="14" lengthAdjust="spacing" textLength="43.0186" x="158.01" y="772.5589">status</text><text fill="#000000" font-family="sans-serif" font-size="14" lengthAdjust="spacing" textLength="55.5488" x="158.01" y="788.8557">location</text><line style="stroke:#181818;stroke-width:0.5;" x1="153.01" x2="234.1633" y1="796.1575" y2="796.1575"/></g><!--class Bike--><g class="entity" data-qualified-name="Bike" data-source-line="43" id="ent0008"><rect fill="#F1F1F1" height="48" rx="2.5" ry="2.5" style="stroke:#181818;stroke-width:0.5;" width="62.2148" x="53.48" y="905.5969"/><ellipse cx="68.48" cy="921.5969" fill="#ADD1B2" rx="11" ry="11" style="stroke:#181818;stroke-width:1;"/><path d="M71.4487,927.2375 Q70.8706,927.5344 70.23,927.675 Q69.5894,927.8313 68.8862,927.8313 Q66.3862,927.8313 65.0581,926.1906 Q63.7456,924.5344 63.7456,921.4094 Q63.7456,918.2844 65.0581,916.6281 Q66.3862,914.9719 68.8862,914.9719 Q69.5894,914.9719 70.23,915.1281 Q70.8862,915.2844 71.4487,915.5813 L71.4487,918.3 Q70.8237,917.7219 70.23,917.4563 Q69.6362,917.175 69.0112,917.175 Q67.6675,917.175 66.98,918.2531 Q66.2925,919.3156 66.2925,921.4094 Q66.2925,923.5031 66.98,924.5813 Q67.6675,925.6438 69.0112,925.6438 Q69.6362,925.6438 70.23,925.3781 Q70.8237,925.0969 71.4487,924.5188 L71.4487,927.2375 Z " fill="#000000"/><text fill="#000000" font-family="sans-serif" font-size="14" lengthAdjust="spacing" textLength="30.2148" x="82.48" y="926.4436">Bike</text><line style="stroke:#181818;stroke-width:0.5;" x1="54.48" x2="114.6948" y1="937.5969" y2="937.5969"/><line style="stroke:#181818;stroke-width:0.5;" x1="54.48" x2="114.6948" y1="945.5969" y2="945.5969"/></g><!--class Scooter--><g class="entity" data-qualified-name="Scooter" data-source-line="44" id="ent0009"><rect fill="#F1F1F1" height="48" rx="2.5" ry="2.5" style="stroke:#181818;stroke-width:0.5;" width="85.5732" x="150.8" y="905.5969"/><ellipse cx="165.8" cy="921.5969" fill="#ADD1B2" rx="11" ry="11" style="stroke:#181818;stroke-width:1;"/><path d="M168.7688,927.2375 Q168.1906,927.5344 167.55,927.675 Q166.9094,927.8313 166.2063,927.8313 Q163.7063,927.8313 162.3781,926.1906 Q161.0656,924.5344 161.0656,921.4094 Q161.0656,918.2844 162.3781,916.6281 Q163.7063,914.9719 166.2063,914.9719 Q166.9094,914.9719 167.55,915.1281 Q168.2063,915.2844 168.7688,915.5813 L168.7688,918.3 Q168.1438,917.7219 167.55,917.4563 Q166.9563,917.175 166.3313,917.175 Q164.9875,917.175 164.3,918.2531 Q163.6125,919.3156 163.6125,921.4094 Q163.6125,923.5031 164.3,924.5813 Q164.9875,925.6438 166.3313,925.6438 Q166.9563,925.6438 167.55,925.3781 Q168.1438,925.0969 168.7688,924.5188 L168.7688,927.2375 Z " fill="#000000"/><text fill="#000000" font-family="sans-serif" font-size="14" lengthAdjust="spacing" textLength="53.5732" x="179.8" y="926.4436">Scooter</text><line style="stroke:#181818;stroke-width:0.5;" x1="151.8" x2="235.3732" y1="937.5969" y2="937.5969"/><line style="stroke:#181818;stroke-width:0.5;" x1="151.8" x2="235.3732" y1="945.5969" y2="945.5969"/></g><!--class Car--><g class="entity" data-qualified-name="Car" data-source-line="45" id="ent0010"><rect fill="#F1F1F1" height="48" rx="2.5" ry="2.5" style="stroke:#181818;stroke-width:0.5;" width="56.1104" x="271.53" y="905.5969"/><ellipse cx="286.53" cy="921.5969" fill="#ADD1B2" rx="11" ry="11" style="stroke:#181818;stroke-width:1;"/><path d="M289.4988,927.2375 Q288.9206,927.5344 288.28,927.675 Q287.6394,927.8313 286.9363,927.8313 Q284.4363,927.8313 283.1081,926.1906 Q281.7956,924.5344 281.7956,921.4094 Q281.7956,918.2844 283.1081,916.6281 Q284.4363,914.9719 286.9363,914.9719 Q287.6394,914.9719 288.28,915.1281 Q288.9363,915.2844 289.4988,915.5813 L289.4988,918.3 Q288.8738,917.7219 288.28,917.4563 Q287.6863,917.175 287.0613,917.175 Q285.7175,917.175 285.03,918.2531 Q284.3425,919.3156 284.3425,921.4094 Q284.3425,923.5031 285.03,924.5813 Q285.7175,925.6438 287.0613,925.6438 Q287.6863,925.6438 288.28,925.3781 Q288.8738,925.0969 289.4988,924.5188 L289.4988,927.2375 Z " fill="#000000"/><text fill="#000000" font-family="sans-serif" font-size="14" lengthAdjust="spacing" textLength="24.1104" x="300.53" y="926.4436">Car</text><line style="stroke:#181818;stroke-width:0.5;" x1="272.53" x2="326.6404" y1="937.5969" y2="937.5969"/><line style="stroke:#181818;stroke-width:0.5;" x1="272.53" x2="326.6404" y1="945.5969" y2="945.5969"/></g><!--class ParkingOperator--><g class="entity" data-qualified-name="ParkingOperator" data-source-line="56" id="ent0016"><rect fill="#F1F1F1" height="80.5938" rx="2.5" ry="2.5" style="stroke:#181818;stroke-width:0.5;" width="147.1992" x="711.98" y="525.2269"/><ellipse cx="726.98" cy="541.2269" fill="#ADD1B2" rx="11" ry="11" style="stroke:#181818;stroke-width:1;"/><path d="M729.9488,546.8675 Q729.3706,547.1644 728.73,547.305 Q728.0894,547.4613 727.3863,547.4613 Q724.8863,547.4613 723.5581,545.8206 Q722.2456,544.1644 722.2456,541.0394 Q722.2456,537.9144 723.5581,536.2581 Q724.8863,534.6019 727.3863,534.6019 Q728.0894,534.6019 728.73,534.7581 Q729.3863,534.9144 729.9488,535.2113 L729.9488,537.93 Q729.3238,537.3519 728.73,537.0863 Q728.1363,536.805 727.5113,536.805 Q726.1675,536.805 725.48,537.8831 Q724.7925,538.9456 724.7925,541.0394 Q724.7925,543.1331 725.48,544.2113 Q726.1675,545.2738 727.5113,545.2738 Q728.1363,545.2738 728.73,545.0081 Q729.3238,544.7269 729.9488,544.1488 L729.9488,546.8675 Z " fill="#000000"/><text fill="#000000" font-family="sans-serif" font-size="14" lengthAdjust="spacing" textLength="115.1992" x="740.98" y="546.0736">ParkingOperator</text><line style="stroke:#181818;stroke-width:0.5;" x1="712.98" x2="858.1792" y1="557.2269" y2="557.2269"/><text fill="#000000" font-family="sans-serif" font-size="14" lengthAdjust="spacing" textLength="73.2266" x="717.98" y="574.222">operatorId</text><text fill="#000000" font-family="sans-serif" font-size="14" lengthAdjust="spacing" textLength="39.7031" x="717.98" y="590.5189">name</text><line style="stroke:#181818;stroke-width:0.5;" x1="712.98" x2="858.1792" y1="597.8206" y2="597.8206"/></g><!--class ParkingSpot--><g class="entity" data-qualified-name="ParkingSpot" data-source-line="61" id="ent0017"><rect fill="#F1F1F1" height="96.8906" rx="2.5" ry="2.5" style="stroke:#181818;stroke-width:0.5;" width="116.3623" x="621.4" y="707.2669"/><ellipse cx="636.4" cy="723.2669" fill="#ADD1B2" rx="11" ry="11" style="stroke:#181818;stroke-width:1;"/><path d="M639.3688,728.9075 Q638.7906,729.2044 638.15,729.345 Q637.5094,729.5013 636.8063,729.5013 Q634.3063,729.5013 632.9781,727.8606 Q631.6656,726.2044 631.6656,723.0794 Q631.6656,719.9544 632.9781,718.2981 Q634.3063,716.6419 636.8063,716.6419 Q637.5094,716.6419 638.15,716.7981 Q638.8063,716.9544 639.3688,717.2513 L639.3688,719.97 Q638.7438,719.3919 638.15,719.1263 Q637.5563,718.845 636.9313,718.845 Q635.5875,718.845 634.9,719.9231 Q634.2125,720.9856 634.2125,723.0794 Q634.2125,725.1731 634.9,726.2513 Q635.5875,727.3138 636.9313,727.3138 Q637.5563,727.3138 638.15,727.0481 Q638.7438,726.7669 639.3688,726.1888 L639.3688,728.9075 Z " fill="#000000"/><text fill="#000000" font-family="sans-serif" font-size="14" lengthAdjust="spacing" textLength="84.3623" x="650.4" y="728.1136">ParkingSpot</text><line style="stroke:#181818;stroke-width:0.5;" x1="622.4" x2="736.7623" y1="739.2669" y2="739.2669"/><text fill="#000000" font-family="sans-serif" font-size="14" lengthAdjust="spacing" textLength="43.251" x="627.4" y="756.262">spotId</text><text fill="#000000" font-family="sans-serif" font-size="14" lengthAdjust="spacing" textLength="76.1318" x="627.4" y="772.5589">availability</text><text fill="#000000" font-family="sans-serif" font-size="14" lengthAdjust="spacing" textLength="34.8428" x="627.4" y="788.8557">price</text><line style="stroke:#181818;stroke-width:0.5;" x1="622.4" x2="736.7623" y1="796.1575" y2="796.1575"/></g><!--class PublicTransportService--><g class="entity" data-qualified-name="PublicTransportService" data-source-line="72" id="ent0020"><rect fill="#F1F1F1" height="80.5938" rx="2.5" ry="2.5" style="stroke:#181818;stroke-width:0.5;" width="193.1709" x="363" y="715.4169"/><ellipse cx="378" cy="731.4169" fill="#ADD1B2" rx="11" ry="11" style="stroke:#181818;stroke-width:1;"/><path d="M380.9688,737.0575 Q380.3906,737.3544 379.75,737.495 Q379.1094,737.6513 378.4063,737.6513 Q375.9063,737.6513 374.5781,736.0106 Q373.2656,734.3544 373.2656,731.2294 Q373.2656,728.1044 374.5781,726.4481 Q375.9063,724.7919 378.4063,724.7919 Q379.1094,724.7919 379.75,724.9481 Q380.4063,725.1044 380.9688,725.4013 L380.9688,728.12 Q380.3438,727.5419 379.75,727.2763 Q379.1563,726.995 378.5313,726.995 Q377.1875,726.995 376.5,728.0731 Q375.8125,729.1356 375.8125,731.2294 Q375.8125,733.3231 376.5,734.4013 Q377.1875,735.4638 378.5313,735.4638 Q379.1563,735.4638 379.75,735.1981 Q380.3438,734.9169 380.9688,734.3388 L380.9688,737.0575 Z " fill="#000000"/><text fill="#000000" font-family="sans-serif" font-size="14" lengthAdjust="spacing" textLength="161.1709" x="392" y="736.2636">PublicTransportService</text><line style="stroke:#181818;stroke-width:0.5;" x1="364" x2="555.1709" y1="747.4169" y2="747.4169"/><text fill="#000000" font-family="sans-serif" font-size="14" lengthAdjust="spacing" textLength="63.1641" x="369" y="764.412">serviceId</text><text fill="#000000" font-family="sans-serif" font-size="14" lengthAdjust="spacing" textLength="39.7031" x="369" y="780.7089">name</text><line style="stroke:#181818;stroke-width:0.5;" x1="364" x2="555.1709" y1="788.0106" y2="788.0106"/></g><!--class TransitSchedule--><g class="entity" data-qualified-name="TransitSchedule" data-source-line="77" id="ent0021"><rect fill="#F1F1F1" height="96.8906" rx="2.5" ry="2.5" style="stroke:#181818;stroke-width:0.5;" width="144.7656" x="387.2" y="881.1569"/><ellipse cx="402.2" cy="897.1569" fill="#ADD1B2" rx="11" ry="11" style="stroke:#181818;stroke-width:1;"/><path d="M405.1688,902.7975 Q404.5906,903.0944 403.95,903.235 Q403.3094,903.3913 402.6063,903.3913 Q400.1063,903.3913 398.7781,901.7506 Q397.4656,900.0944 397.4656,896.9694 Q397.4656,893.8444 398.7781,892.1881 Q400.1063,890.5319 402.6063,890.5319 Q403.3094,890.5319 403.95,890.6881 Q404.6063,890.8444 405.1688,891.1413 L405.1688,893.86 Q404.5438,893.2819 403.95,893.0163 Q403.3563,892.735 402.7313,892.735 Q401.3875,892.735 400.7,893.8131 Q400.0125,894.8756 400.0125,896.9694 Q400.0125,899.0631 400.7,900.1413 Q401.3875,901.2038 402.7313,901.2038 Q403.3563,901.2038 403.95,900.9381 Q404.5438,900.6569 405.1688,900.0788 L405.1688,902.7975 Z " fill="#000000"/><text fill="#000000" font-family="sans-serif" font-size="14" lengthAdjust="spacing" textLength="112.7656" x="416.2" y="902.0036">TransitSchedule</text><line style="stroke:#181818;stroke-width:0.5;" x1="388.2" x2="530.9656" y1="913.1569" y2="913.1569"/><text fill="#000000" font-family="sans-serif" font-size="14" lengthAdjust="spacing" textLength="75.7559" x="393.2" y="930.152">scheduleId</text><text fill="#000000" font-family="sans-serif" font-size="14" lengthAdjust="spacing" textLength="31.6299" x="393.2" y="946.4489">time</text><text fill="#000000" font-family="sans-serif" font-size="14" lengthAdjust="spacing" textLength="43.0186" x="393.2" y="962.7457">status</text><line style="stroke:#181818;stroke-width:0.5;" x1="388.2" x2="530.9656" y1="970.0475" y2="970.0475"/></g><!--class Trip--><g class="entity" data-qualified-name="Trip" data-source-line="88" id="ent0024"><rect fill="#F1F1F1" height="129.4844" rx="2.5" ry="2.5" style="stroke:#181818;stroke-width:0.5;" width="104.0664" x="572.55" y="500.7769"/><ellipse cx="607.7921" cy="516.7769" fill="#ADD1B2" rx="11" ry="11" style="stroke:#181818;stroke-width:1;"/><path d="M610.7608,522.4175 Q610.1827,522.7144 609.5421,522.855 Q608.9015,523.0113 608.1983,523.0113 Q605.6983,523.0113 604.3702,521.3706 Q603.0577,519.7144 603.0577,516.5894 Q603.0577,513.4644 604.3702,511.8081 Q605.6983,510.1519 608.1983,510.1519 Q608.9015,510.1519 609.5421,510.3081 Q610.1983,510.4644 610.7608,510.7613 L610.7608,513.48 Q610.1358,512.9019 609.5421,512.6363 Q608.9483,512.355 608.3233,512.355 Q606.9796,512.355 606.2921,513.4331 Q605.6046,514.4956 605.6046,516.5894 Q605.6046,518.6831 606.2921,519.7613 Q606.9796,520.8238 608.3233,520.8238 Q608.9483,520.8238 609.5421,520.5581 Q610.1358,520.2769 610.7608,519.6988 L610.7608,522.4175 Z " fill="#000000"/><text fill="#000000" font-family="sans-serif" font-size="14" lengthAdjust="spacing" textLength="27.084" x="626.2903" y="521.6236">Trip</text><line style="stroke:#181818;stroke-width:0.5;" x1="573.55" x2="675.6164" y1="532.7769" y2="532.7769"/><text fill="#000000" font-family="sans-serif" font-size="14" lengthAdjust="spacing" textLength="37.0371" x="578.55" y="549.772">tripId</text><text fill="#000000" font-family="sans-serif" font-size="14" lengthAdjust="spacing" textLength="92.0664" x="578.55" y="566.0689">startLocation</text><text fill="#000000" font-family="sans-serif" font-size="14" lengthAdjust="spacing" textLength="85.832" x="578.55" y="582.3657">endLocation</text><text fill="#000000" font-family="sans-serif" font-size="14" lengthAdjust="spacing" textLength="31.5684" x="578.55" y="598.6626">date</text><text fill="#000000" font-family="sans-serif" font-size="14" lengthAdjust="spacing" textLength="43.0186" x="578.55" y="614.9595">status</text><line style="stroke:#181818;stroke-width:0.5;" x1="573.55" x2="675.6164" y1="622.2613" y2="622.2613"/></g><!--class Payment--><g class="entity" data-qualified-name="Payment" data-source-line="104" id="ent0029"><rect fill="#F1F1F1" height="96.8906" rx="2.5" ry="2.5" style="stroke:#181818;stroke-width:0.5;" width="93.9199" x="839.62" y="707.2669"/><ellipse cx="854.62" cy="723.2669" fill="#ADD1B2" rx="11" ry="11" style="stroke:#181818;stroke-width:1;"/><path d="M857.5888,728.9075 Q857.0106,729.2044 856.37,729.345 Q855.7294,729.5013 855.0263,729.5013 Q852.5263,729.5013 851.1981,727.8606 Q849.8856,726.2044 849.8856,723.0794 Q849.8856,719.9544 851.1981,718.2981 Q852.5263,716.6419 855.0263,716.6419 Q855.7294,716.6419 856.37,716.7981 Q857.0263,716.9544 857.5888,717.2513 L857.5888,719.97 Q856.9638,719.3919 856.37,719.1263 Q855.7763,718.845 855.1513,718.845 Q853.8075,718.845 853.12,719.9231 Q852.4325,720.9856 852.4325,723.0794 Q852.4325,725.1731 853.12,726.2513 Q853.8075,727.3138 855.1513,727.3138 Q855.7763,727.3138 856.37,727.0481 Q856.9638,726.7669 857.5888,726.1888 L857.5888,728.9075 Z " fill="#000000"/><text fill="#000000" font-family="sans-serif" font-size="14" lengthAdjust="spacing" textLength="61.9199" x="868.62" y="728.1136">Payment</text><line style="stroke:#181818;stroke-width:0.5;" x1="840.62" x2="932.5399" y1="739.2669" y2="739.2669"/><text fill="#000000" font-family="sans-serif" font-size="14" lengthAdjust="spacing" textLength="75.3799" x="845.62" y="756.262">paymentId</text><text fill="#000000" font-family="sans-serif" font-size="14" lengthAdjust="spacing" textLength="54.0176" x="845.62" y="772.5589">amount</text><text fill="#000000" font-family="sans-serif" font-size="14" lengthAdjust="spacing" textLength="43.0186" x="845.62" y="788.8557">status</text><line style="stroke:#181818;stroke-width:0.5;" x1="840.62" x2="932.5399" y1="796.1575" y2="796.1575"/></g><!--class Recommendation--><g class="entity" data-qualified-name="Recommendation" data-source-line="114" id="ent0031"><rect fill="#F1F1F1" height="80.5938" rx="2.5" ry="2.5" style="stroke:#181818;stroke-width:0.5;" width="155.6484" x="893.76" y="525.2269"/><ellipse cx="908.76" cy="541.2269" fill="#ADD1B2" rx="11" ry="11" style="stroke:#181818;stroke-width:1;"/><path d="M911.7288,546.8675 Q911.1506,547.1644 910.51,547.305 Q909.8694,547.4613 909.1663,547.4613 Q906.6663,547.4613 905.3381,545.8206 Q904.0256,544.1644 904.0256,541.0394 Q904.0256,537.9144 905.3381,536.2581 Q906.6663,534.6019 909.1663,534.6019 Q909.8694,534.6019 910.51,534.7581 Q911.1663,534.9144 911.7288,535.2113 L911.7288,537.93 Q911.1038,537.3519 910.51,537.0863 Q909.9163,536.805 909.2913,536.805 Q907.9475,536.805 907.26,537.8831 Q906.5725,538.9456 906.5725,541.0394 Q906.5725,543.1331 907.26,544.2113 Q907.9475,545.2738 909.2913,545.2738 Q909.9163,545.2738 910.51,545.0081 Q911.1038,544.7269 911.7288,544.1488 L911.7288,546.8675 Z " fill="#000000"/><text fill="#000000" font-family="sans-serif" font-size="14" lengthAdjust="spacing" textLength="123.6484" x="922.76" y="546.0736">Recommendation</text><line style="stroke:#181818;stroke-width:0.5;" x1="894.76" x2="1048.4084" y1="557.2269" y2="557.2269"/><text fill="#000000" font-family="sans-serif" font-size="14" lengthAdjust="spacing" textLength="132.6924" x="899.76" y="574.222">recommendationId</text><text fill="#000000" font-family="sans-serif" font-size="14" lengthAdjust="spacing" textLength="62.918" x="899.76" y="590.5189">message</text><line style="stroke:#181818;stroke-width:0.5;" x1="894.76" x2="1048.4084" y1="597.8206" y2="597.8206"/></g><!--class AdminDashboard--><g class="entity" data-qualified-name="AdminDashboard" data-source-line="123" id="ent0033"><rect fill="#F1F1F1" height="48" rx="2.5" ry="2.5" style="stroke:#181818;stroke-width:0.5;" width="153.0645" x="226.05" y="201.8869"/><ellipse cx="241.05" cy="217.8869" fill="#ADD1B2" rx="11" ry="11" style="stroke:#181818;stroke-width:1;"/><path d="M244.0188,223.5275 Q243.4406,223.8244 242.8,223.965 Q242.1594,224.1213 241.4563,224.1213 Q238.9563,224.1213 237.6281,222.4806 Q236.3156,220.8244 236.3156,217.6994 Q236.3156,214.5744 237.6281,212.9181 Q238.9563,211.2619 241.4563,211.2619 Q242.1594,211.2619 242.8,211.4181 Q243.4563,211.5744 244.0188,211.8713 L244.0188,214.59 Q243.3938,214.0119 242.8,213.7463 Q242.2063,213.465 241.5813,213.465 Q240.2375,213.465 239.55,214.5431 Q238.8625,215.6056 238.8625,217.6994 Q238.8625,219.7931 239.55,220.8713 Q240.2375,221.9338 241.5813,221.9338 Q242.2063,221.9338 242.8,221.6681 Q243.3938,221.3869 244.0188,220.8088 L244.0188,223.5275 Z " fill="#000000"/><text fill="#000000" font-family="sans-serif" font-size="14" lengthAdjust="spacing" textLength="121.0645" x="255.05" y="222.7336">AdminDashboard</text><line style="stroke:#181818;stroke-width:0.5;" x1="227.05" x2="378.1145" y1="233.8869" y2="233.8869"/><line style="stroke:#181818;stroke-width:0.5;" x1="227.05" x2="378.1145" y1="241.8869" y2="241.8869"/></g><!--class AnalyticsReport--><g class="entity" data-qualified-name="AnalyticsReport" data-source-line="125" id="ent0034"><rect fill="#F1F1F1" height="80.5938" rx="2.5" ry="2.5" style="stroke:#181818;stroke-width:0.5;" width="142.6123" x="231.28" y="335.0369"/><ellipse cx="246.28" cy="351.0369" fill="#ADD1B2" rx="11" ry="11" style="stroke:#181818;stroke-width:1;"/><path d="M249.2488,356.6775 Q248.6706,356.9744 248.03,357.115 Q247.3894,357.2713 246.6863,357.2713 Q244.1863,357.2713 242.8581,355.6306 Q241.5456,353.9744 241.5456,350.8494 Q241.5456,347.7244 242.8581,346.0681 Q244.1863,344.4119 246.6863,344.4119 Q247.3894,344.4119 248.03,344.5681 Q248.6863,344.7244 249.2488,345.0213 L249.2488,347.74 Q248.6238,347.1619 248.03,346.8963 Q247.4363,346.615 246.8113,346.615 Q245.4675,346.615 244.78,347.6931 Q244.0925,348.7556 244.0925,350.8494 Q244.0925,352.9431 244.78,354.0213 Q245.4675,355.0838 246.8113,355.0838 Q247.4363,355.0838 248.03,354.8181 Q248.6238,354.5369 249.2488,353.9588 L249.2488,356.6775 Z " fill="#000000"/><text fill="#000000" font-family="sans-serif" font-size="14" lengthAdjust="spacing" textLength="110.6123" x="260.28" y="355.8836">AnalyticsReport</text><line style="stroke:#181818;stroke-width:0.5;" x1="232.28" x2="372.8923" y1="367.0369" y2="367.0369"/><text fill="#000000" font-family="sans-serif" font-size="14" lengthAdjust="spacing" textLength="56.082" x="237.28" y="384.032">reportId</text><text fill="#000000" font-family="sans-serif" font-size="14" lengthAdjust="spacing" textLength="31.2744" x="237.28" y="400.3289">type</text><line style="stroke:#181818;stroke-width:0.5;" x1="232.28" x2="372.8923" y1="407.6306" y2="407.6306"/></g><!--class UsageStatistic--><g class="entity" data-qualified-name="UsageStatistic" data-source-line="130" id="ent0035"><rect fill="#F1F1F1" height="80.5938" rx="2.5" ry="2.5" style="stroke:#181818;stroke-width:0.5;" width="132.3242" x="187.42" y="525.2269"/><ellipse cx="202.42" cy="541.2269" fill="#ADD1B2" rx="11" ry="11" style="stroke:#181818;stroke-width:1;"/><path d="M205.3888,546.8675 Q204.8106,547.1644 204.17,547.305 Q203.5294,547.4613 202.8263,547.4613 Q200.3263,547.4613 198.9981,545.8206 Q197.6856,544.1644 197.6856,541.0394 Q197.6856,537.9144 198.9981,536.2581 Q200.3263,534.6019 202.8263,534.6019 Q203.5294,534.6019 204.17,534.7581 Q204.8263,534.9144 205.3888,535.2113 L205.3888,537.93 Q204.7638,537.3519 204.17,537.0863 Q203.5763,536.805 202.9513,536.805 Q201.6075,536.805 200.92,537.8831 Q200.2325,538.9456 200.2325,541.0394 Q200.2325,543.1331 200.92,544.2113 Q201.6075,545.2738 202.9513,545.2738 Q203.5763,545.2738 204.17,545.0081 Q204.7638,544.7269 205.3888,544.1488 L205.3888,546.8675 Z " fill="#000000"/><text fill="#000000" font-family="sans-serif" font-size="14" lengthAdjust="spacing" textLength="100.3242" x="216.42" y="546.0736">UsageStatistic</text><line style="stroke:#181818;stroke-width:0.5;" x1="188.42" x2="318.7442" y1="557.2269" y2="557.2269"/><text fill="#000000" font-family="sans-serif" font-size="14" lengthAdjust="spacing" textLength="89.4482" x="193.42" y="574.222">statisticType</text><text fill="#000000" font-family="sans-serif" font-size="14" lengthAdjust="spacing" textLength="38.2402" x="193.42" y="590.5189">value</text><line style="stroke:#181818;stroke-width:0.5;" x1="188.42" x2="318.7442" y1="597.8206" y2="597.8206"/></g><!--reverse link Vehicle to Bike--><g class="link" data-entity-1="ent0007" data-entity-2="ent0008" data-link-type="extension" data-source-line="47" id="lnk11"><path codeLine="47" d="M153.5794,819.7975 C132.7894,852.5775 115.78,879.4169 99.45,905.1569" fill="none" id="Vehicle-backto-Bike" style="stroke:#181818;stroke-width:1;"/><polygon fill="none" points="163.22,804.5969,148.5125,816.5839,158.6462,823.011,163.22,804.5969" style="stroke:#181818;stroke-width:1;"/></g><!--reverse link Vehicle to Scooter--><g class="link" data-entity-1="ent0007" data-entity-2="ent0009" data-link-type="extension" data-source-line="48" id="lnk12"><path codeLine="48" d="M193.58,822.5969 C193.58,855.3769 193.58,879.4169 193.58,905.1569" fill="none" id="Vehicle-backto-Scooter" style="stroke:#181818;stroke-width:1;"/><polygon fill="none" points="193.58,804.5969,187.58,822.5969,199.58,822.5969,193.58,804.5969" style="stroke:#181818;stroke-width:1;"/></g><!--reverse link Vehicle to Car--><g class="link" data-entity-1="ent0007" data-entity-2="ent0010" data-link-type="extension" data-source-line="49" id="lnk13"><path codeLine="49" d="M232.5599,819.9168 C252.7799,852.6968 269.25,879.4169 285.13,905.1569" fill="none" id="Vehicle-backto-Car" style="stroke:#181818;stroke-width:1;"/><polygon fill="none" points="223.11,804.5969,227.4533,823.0667,237.6665,816.7668,223.11,804.5969" style="stroke:#181818;stroke-width:1;"/></g><!--link MobilityProvider to Vehicle--><g class="link" data-entity-1="ent0006" data-entity-2="ent0007" data-link-type="association" data-source-line="51" id="lnk14"><path codeLine="51" d="M75.52,606.2469 C75.05,628.4569 77.61,655.8769 89.58,677.2669 C103.55,702.2169 129.26,721.4669 151.61,734.5369" fill="none" id="MobilityProvider-Vehicle" style="stroke:#181818;stroke-width:1;"/><text fill="#000000" font-family="sans-serif" font-size="13" lengthAdjust="spacing" textLength="59.8584" x="90.58" y="673.3338">manages</text><text fill="#000000" font-family="sans-serif" font-size="13" lengthAdjust="spacing" textLength="8.271" x="66.2563" y="626.0099">1</text><text fill="#000000" font-family="sans-serif" font-size="13" lengthAdjust="spacing" textLength="6.5" x="137.6431" y="726.5078">*</text></g><!--link City to Vehicle--><g class="link" data-entity-1="ent0005" data-entity-2="ent0007" data-link-type="association" data-source-line="52" id="lnk15"><path codeLine="52" d="M362.38,606.0969 C355.52,615.2669 347.2,624.1269 337.58,630.2669 C281.39,666.1569 232.76,608.6169 190.58,660.2669 C180.1,673.0969 178.36,690.5069 180.09,706.8869" fill="none" id="City-Vehicle" style="stroke:#181818;stroke-width:1;"/><text fill="#000000" font-family="sans-serif" font-size="13" lengthAdjust="spacing" textLength="64.0098" x="191.58" y="673.3338">located in</text><text fill="#000000" font-family="sans-serif" font-size="13" lengthAdjust="spacing" textLength="8.271" x="350.226" y="625.836">1</text><text fill="#000000" font-family="sans-serif" font-size="13" lengthAdjust="spacing" textLength="6.5" x="171.8053" y="696.0424">*</text></g><!--link ParkingOperator to ParkingSpot--><g class="link" data-entity-1="ent0016" data-entity-2="ent0017" data-link-type="association" data-source-line="67" id="lnk18"><path codeLine="67" d="M766.75,606.2669 C756.32,627.5969 742.82,654.1869 729.58,677.2669 C724.01,686.9869 717.75,697.1769 711.59,706.8569" fill="none" id="ParkingOperator-ParkingSpot" style="stroke:#181818;stroke-width:1;"/><text fill="#000000" font-family="sans-serif" font-size="13" lengthAdjust="spacing" textLength="59.8584" x="739.58" y="673.3338">manages</text><text fill="#000000" font-family="sans-serif" font-size="13" lengthAdjust="spacing" textLength="8.271" x="755.1331" y="626.0331">1</text><text fill="#000000" font-family="sans-serif" font-size="13" lengthAdjust="spacing" textLength="6.5" x="709.5217" y="696.3599">*</text></g><!--link City to ParkingSpot--><g class="link" data-entity-1="ent0005" data-entity-2="ent0017" data-link-type="association" data-source-line="68" id="lnk19"><path codeLine="68" d="M414.58,583.3269 C446.85,601.5969 499.47,631.9969 543.58,660.2669 C569.36,676.7869 597.23,695.9069 620.99,712.5969" fill="none" id="City-ParkingSpot" style="stroke:#181818;stroke-width:1;"/><text fill="#000000" font-family="sans-serif" font-size="13" lengthAdjust="spacing" textLength="55.0278" x="567.58" y="673.3338">contains</text><text fill="#000000" font-family="sans-serif" font-size="13" lengthAdjust="spacing" textLength="8.271" x="422.4739" y="582.7917">1</text><text fill="#000000" font-family="sans-serif" font-size="13" lengthAdjust="spacing" textLength="6.5" x="606.7473" y="702.8713">*</text></g><!--link PublicTransportService to TransitSchedule--><g class="link" data-entity-1="ent0020" data-entity-2="ent0021" data-link-type="association" data-source-line="83" id="lnk22"><path codeLine="83" d="M459.58,796.1469 C459.58,821.3269 459.58,854.1169 459.58,880.7769" fill="none" id="PublicTransportService-TransitSchedule" style="stroke:#181818;stroke-width:1;"/><text fill="#000000" font-family="sans-serif" font-size="13" lengthAdjust="spacing" textLength="22.9785" x="460.58" y="847.2238">has</text><text fill="#000000" font-family="sans-serif" font-size="13" lengthAdjust="spacing" textLength="8.271" x="450.939" y="816.1637">1</text><text fill="#000000" font-family="sans-serif" font-size="13" lengthAdjust="spacing" textLength="6.5" x="453.1929" y="869.9324">*</text></g><!--link City to PublicTransportService--><g class="link" data-entity-1="ent0005" data-entity-2="ent0020" data-link-type="association" data-source-line="84" id="lnk23"><path codeLine="84" d="M367.81,606.2669 C361.17,628.0869 357.29,655.1369 367.58,677.2669 C374.28,691.6469 385.11,704.3169 397.02,715.0269" fill="none" id="City-PublicTransportService" style="stroke:#181818;stroke-width:1;"/><text fill="#000000" font-family="sans-serif" font-size="13" lengthAdjust="spacing" textLength="73.3662" x="368.58" y="673.3338">operates in</text><text fill="#000000" font-family="sans-serif" font-size="13" lengthAdjust="spacing" textLength="8.271" x="365.7964" y="626.0331">1</text><text fill="#000000" font-family="sans-serif" font-size="13" lengthAdjust="spacing" textLength="6.5" x="380.6104" y="704.4246">*</text></g><!--link User to Trip--><g class="link" data-entity-1="ent0002" data-entity-2="ent0024" data-link-type="association" data-source-line="96" id="lnk25"><path codeLine="96" d="M805.47,424.1969 C770.59,446.2869 729.65,473.6069 694.58,500.7769 C688.74,505.3069 682.78,510.2169 676.94,515.2269" fill="none" id="User-Trip" style="stroke:#181818;stroke-width:1;"/><text fill="#000000" font-family="sans-serif" font-size="13" lengthAdjust="spacing" textLength="114.9814" x="756.58" y="466.8438">plans / completes</text><text fill="#000000" font-family="sans-serif" font-size="13" lengthAdjust="spacing" textLength="8.271" x="786.3202" y="443.8467">1</text><text fill="#000000" font-family="sans-serif" font-size="13" lengthAdjust="spacing" textLength="6.5" x="684.7597" y="504.1761">*</text></g><!--link Trip to Vehicle--><g class="link" data-entity-1="ent0024" data-entity-2="ent0007" data-link-type="association" data-source-line="98" id="lnk26"><path codeLine="98" d="M572.38,584.5169 C533.67,597.6769 479.53,615.6969 431.58,630.2669 C383.92,644.7469 368.45,638.6169 323.58,660.2669 C291.93,675.5469 259.94,698.6569 235.62,718.1969" fill="none" id="Trip-Vehicle" style="stroke:#181818;stroke-width:1;"/><text fill="#000000" font-family="sans-serif" font-size="13" lengthAdjust="spacing" textLength="29.7832" x="324.58" y="673.3338">uses</text><text fill="#000000" font-family="sans-serif" font-size="13" lengthAdjust="spacing" textLength="6.5" x="557.9653" y="583.3545">*</text><text fill="#000000" font-family="sans-serif" font-size="13" lengthAdjust="spacing" textLength="8.271" x="243.2667" y="707.8191">1</text></g><!--link Trip to ParkingSpot--><g class="link" data-entity-1="ent0024" data-entity-2="ent0017" data-link-type="association" data-source-line="99" id="lnk27"><path codeLine="99" d="M643.36,630.7569 C650.64,655.6769 658.83,683.7069 665.58,706.8069" fill="none" id="Trip-ParkingSpot" style="stroke:#181818;stroke-width:1;"/><text fill="#000000" font-family="sans-serif" font-size="13" lengthAdjust="spacing" textLength="64.1431" x="656.58" y="673.3338">may book</text><text fill="#000000" font-family="sans-serif" font-size="13" lengthAdjust="spacing" textLength="6.5" x="639.0128" y="650.3317">*</text><text fill="#000000" font-family="sans-serif" font-size="13" lengthAdjust="spacing" textLength="8.271" x="655.1793" y="696.3032">1</text></g><!--link Trip to PublicTransportService--><g class="link" data-entity-1="ent0024" data-entity-2="ent0020" data-link-type="association" data-source-line="100" id="lnk28"><path codeLine="100" d="M572.36,588.9269 C541.79,604.6269 504.94,628.4969 482.58,660.2669 C471.32,676.2769 465.54,697.1669 462.59,715.2369" fill="none" id="Trip-PublicTransportService" style="stroke:#181818;stroke-width:1;"/><text fill="#000000" font-family="sans-serif" font-size="13" lengthAdjust="spacing" textLength="55.4658" x="483.58" y="673.3338">may use</text><text fill="#000000" font-family="sans-serif" font-size="13" lengthAdjust="spacing" textLength="6.5" x="557.9422" y="605.7367">*</text><text fill="#000000" font-family="sans-serif" font-size="13" lengthAdjust="spacing" textLength="8.271" x="454.4476" y="704.3686">1</text></g><!--link Trip to Payment--><g class="link" data-entity-1="ent0024" data-entity-2="ent0029" data-link-type="association" data-source-line="110" id="lnk30"><path codeLine="110" d="M676.84,618.7569 C682.57,623.0269 688.52,626.9569 694.58,630.2669 C740.21,655.1369 763.75,632.3669 807.58,660.2669 C826.34,672.2069 842.89,690.0269 855.94,706.9869" fill="none" id="Trip-Payment" style="stroke:#181818;stroke-width:1;"/><text fill="#000000" font-family="sans-serif" font-size="13" lengthAdjust="spacing" textLength="50.6733" x="830.58" y="673.3338">triggers</text><text fill="#000000" font-family="sans-serif" font-size="13" lengthAdjust="spacing" textLength="8.271" x="684.7702" y="622.265">1</text><text fill="#000000" font-family="sans-serif" font-size="13" lengthAdjust="spacing" textLength="8.271" x="843.0878" y="696.1564">1</text></g><!--link User to Recommendation--><g class="link" data-entity-1="ent0002" data-entity-2="ent0031" data-link-type="association" data-source-line="119" id="lnk32"><path codeLine="119" d="M906.54,423.8269 C920.99,455.0769 939.67,495.4969 953.31,524.9969" fill="none" id="User-Recommendation" style="stroke:#181818;stroke-width:1;"/><text fill="#000000" font-family="sans-serif" font-size="13" lengthAdjust="spacing" textLength="54.5645" x="929.58" y="466.8438">receives</text><text fill="#000000" font-family="sans-serif" font-size="13" lengthAdjust="spacing" textLength="8.271" x="901.0846" y="443.7774">1</text><text fill="#000000" font-family="sans-serif" font-size="13" lengthAdjust="spacing" textLength="6.5" x="943.8279" y="514.1203">*</text></g><!--link CityAdministrator to AdminDashboard--><g class="link" data-entity-1="ent0003" data-entity-2="ent0033" data-link-type="association" data-source-line="135" id="lnk36"><path codeLine="135" d="M302.58,125.1369 C302.58,149.7469 302.58,180.5769 302.58,201.3969" fill="none" id="CityAdministrator-AdminDashboard" style="stroke:#181818;stroke-width:1;"/><text fill="#000000" font-family="sans-serif" font-size="13" lengthAdjust="spacing" textLength="36.7085" x="303.58" y="167.9538">views</text><text fill="#000000" font-family="sans-serif" font-size="13" lengthAdjust="spacing" textLength="8.271" x="293.9639" y="144.8712">1</text><text fill="#000000" font-family="sans-serif" font-size="13" lengthAdjust="spacing" textLength="8.271" x="293.6375" y="190.6824">1</text></g><!--link AdminDashboard to AnalyticsReport--><g class="link" data-entity-1="ent0033" data-entity-2="ent0034" data-link-type="association" data-source-line="136" id="lnk37"><path codeLine="136" d="M302.58,250.2569 C302.58,272.9069 302.58,307.7169 302.58,334.7069" fill="none" id="AdminDashboard-AnalyticsReport" style="stroke:#181818;stroke-width:1;"/><text fill="#000000" font-family="sans-serif" font-size="13" lengthAdjust="spacing" textLength="52.9331" x="303.58" y="292.9538">displays</text><text fill="#000000" font-family="sans-serif" font-size="13" lengthAdjust="spacing" textLength="8.271" x="293.6375" y="270.1083">1</text><text fill="#000000" font-family="sans-serif" font-size="13" lengthAdjust="spacing" textLength="6.5" x="296.1407" y="324.1141">*</text></g><!--link AnalyticsReport to UsageStatistic--><g class="link" data-entity-1="ent0034" data-entity-2="ent0035" data-link-type="association" data-source-line="137" id="lnk38"><path codeLine="137" d="M281.89,416.0769 C276.47,427.9369 271.15,441.1469 267.58,453.7769 C261.08,476.8169 257.6,503.3969 255.73,524.7469" fill="none" id="AnalyticsReport-UsageStatistic" style="stroke:#181818;stroke-width:1;"/><text fill="#000000" font-family="sans-serif" font-size="13" lengthAdjust="spacing" textLength="55.0278" x="268.58" y="466.8438">contains</text><text fill="#000000" font-family="sans-serif" font-size="13" lengthAdjust="spacing" textLength="8.271" x="269.9756" y="435.8431">1</text><text fill="#000000" font-family="sans-serif" font-size="13" lengthAdjust="spacing" textLength="6.5" x="249.634" y="514.1302">*</text></g><!--link AnalyticsReport to City--><g class="link" data-entity-1="ent0034" data-entity-2="ent0005" data-link-type="association" data-source-line="138" id="lnk39"><path codeLine="138" d="M319.77,415.7869 C333.72,447.7969 353.3,492.7169 367.28,524.7969" fill="none" id="AnalyticsReport-City" style="stroke:#181818;stroke-width:1;"/><text fill="#000000" font-family="sans-serif" font-size="13" lengthAdjust="spacing" textLength="61.9722" x="344.58" y="466.8438">relates to</text><text fill="#000000" font-family="sans-serif" font-size="13" lengthAdjust="spacing" textLength="6.5" x="316.1606" y="435.807">*</text><text fill="#000000" font-family="sans-serif" font-size="13" lengthAdjust="spacing" textLength="8.271" x="355.907" y="514.1882">1</text></g><?plantuml-src ZLLDRzim3BthLmYvx0C8jbwDxT2kbm8BLiJfxehD9KHjoP3a55wt_pwAiXF9SO7b4efwfDwZADgZRq2MJvjDATVothGAjToO6XeXt3FgJbdLogfHpjrwRt7VUtYeZ2xnDyZFGhoJNyDFFZcmBjf2C9nTybL8sPFnK9EXLGlqrrdu1TP2lJ5xRD0Fkw43yNUA-qQUsxf5ZSvRvKrCeeBdakMCBWVdeVqV_4GrvC-PiYS4LMGinanCyxZ9-sZD2UjHRJSkiZng7xXLFbPI_eGZLbJtW3z5c-7EAzyxCXfJAOz6NtJUuJDCaYjZFDY9lB92J0c__5cl8pJpJ16PamEl9AnkLf8sLnzNPvQ5R9LM1t222xM8OC9GIzINeZqgInrqo6isEdzqSBahCouMhdU4bvtn37LaC4oT53OgakUgOyLXy_m9spJNsvfo5BMwfoVX4bNzli5AxgpIHCRwcJpUFM-MO4z4B5AFze98XgClgoFK_TWMRbmmt2C_dB4zWihbOn8Pyvo5FAe5iSjvYl5Am6KNkhFOEVc-1NkWgtv1VvHR2BAuLp_abGXWLa9Jevkws_hlKsTB2RfELZKTbsda-P4feeI5x1eYAp_HpRHT0qHH2Du9a82yITkIHe-xsfxtmI3tnZnVmzwgJOYWn6cZ3oteUIUCJfu9qOwDsvfU-qnfFFac8HX3Yr2xmu4cw-MiBP1msgsvRhEHcs_oqJPpCOCMdAFMNwhnB44HmW5Fa12urQePF5Qpeta2tojtt1jbwxDt0c-1tqfa5CpOrzdWVmgiIgeA3N9wOQzZZNZ5dmWQbghfEUBw8v7KB-T2Aau8BqxCt8diESr2rkYeqGOAccqbKJE-oR2u2hfq5R_0KDU6dvSt_m00?></g></svg>