<?plantuml 1.2026.2beta3?><svg xmlns="http://www.w3.org/2000/svg" xmlns:xlink="http://www.w3.org/1999/xlink" contentStyleType="text/css" data-diagram-type="DESCRIPTION" height="1507px" preserveAspectRatio="none" style="width:979px;height:1507px;background:#FFFFFF;" version="1.1" viewBox="0 0 979 1507" width="979px" zoomAndPan="magnify"><defs/><g><!--cluster Smart Mobility System--><g class="cluster" data-qualified-name="Smart Mobility System" data-source-line="8" id="ent0005"><rect fill="none" height="1494" rx="2.5" ry="2.5" style="stroke:#181818;stroke-width:1;" width="773.27" x="200.06" y="7"/><text fill="#000000" font-family="sans-serif" font-size="14" font-weight="bold" lengthAdjust="spacing" textLength="179.5664" x="496.9118" y="21.9951">Smart Mobility System</text></g><!--cluster Subscription & Access--><g class="cluster" data-qualified-name="Smart Mobility System.Subscription . Access" data-source-line="10" id="ent0006"><path d="M290.34,50 L466.3947,50 A3.75,3.75 0 0 1 468.8947,52.5 L475.8947,72.2969 L491.45,72.2969 A2.5,2.5 0 0 1 493.95,74.7969 L493.95,266.5 A2.5,2.5 0 0 1 491.45,269 L290.34,269 A2.5,2.5 0 0 1 287.84,266.5 L287.84,52.5 A2.5,2.5 0 0 1 290.34,50" fill="none" style="stroke:#000000;stroke-width:1.5;"/><line style="stroke:#000000;stroke-width:1.5;" x1="287.84" x2="475.8947" y1="72.2969" y2="72.2969"/><text fill="#000000" font-family="sans-serif" font-size="14" font-weight="bold" lengthAdjust="spacing" textLength="175.0547" x="291.84" y="64.9951">Subscription &amp; Access</text></g><!--cluster Rental System--><g class="cluster" data-qualified-name="Smart Mobility System.Rental System" data-source-line="16" id="ent0010"><path d="M294.52,293 L409.8921,293 A3.75,3.75 0 0 1 412.3921,295.5 L419.3921,315.2969 L941.85,315.2969 A2.5,2.5 0 0 1 944.35,317.7969 L944.35,649.5 A2.5,2.5 0 0 1 941.85,652 L294.52,652 A2.5,2.5 0 0 1 292.02,649.5 L292.02,295.5 A2.5,2.5 0 0 1 294.52,293" fill="none" style="stroke:#000000;stroke-width:1.5;"/><line style="stroke:#000000;stroke-width:1.5;" x1="292.02" x2="419.3921" y1="315.2969" y2="315.2969"/><text fill="#000000" font-family="sans-serif" font-size="14" font-weight="bold" lengthAdjust="spacing" textLength="114.3721" x="296.02" y="307.9951">Rental System</text></g><!--cluster Vehicle Management (Mobility Provider)--><g class="cluster" data-qualified-name="Smart Mobility System.Vehicle Management .Mobility Provider." data-source-line="26" id="ent0018"><path d="M226.56,888 L546.6342,888 A3.75,3.75 0 0 1 549.1342,890.5 L556.1342,910.2969 L556.23,910.2969 A2.5,2.5 0 0 1 558.73,912.7969 L558.73,1126.5 A2.5,2.5 0 0 1 556.23,1129 L226.56,1129 A2.5,2.5 0 0 1 224.06,1126.5 L224.06,890.5 A2.5,2.5 0 0 1 226.56,888" fill="none" style="stroke:#000000;stroke-width:1.5;"/><line style="stroke:#000000;stroke-width:1.5;" x1="224.06" x2="556.1342" y1="910.2969" y2="910.2969"/><text fill="#000000" font-family="sans-serif" font-size="14" font-weight="bold" lengthAdjust="spacing" textLength="319.0742" x="228.06" y="902.9951">Vehicle Management (Mobility Provider)</text></g><!--cluster Analytics System--><g class="cluster" data-qualified-name="Smart Mobility System.Analytics System" data-source-line="32" id="ent0022"><path d="M281.11,1153 L417.5983,1153 A3.75,3.75 0 0 1 420.0983,1155.5 L427.0983,1175.2969 L946.83,1175.2969 A2.5,2.5 0 0 1 949.33,1177.7969 L949.33,1474.5 A2.5,2.5 0 0 1 946.83,1477 L281.11,1477 A2.5,2.5 0 0 1 278.61,1474.5 L278.61,1155.5 A2.5,2.5 0 0 1 281.11,1153" fill="none" style="stroke:#000000;stroke-width:1.5;"/><line style="stroke:#000000;stroke-width:1.5;" x1="278.61" x2="427.0983" y1="1175.2969" y2="1175.2969"/><text fill="#000000" font-family="sans-serif" font-size="14" font-weight="bold" lengthAdjust="spacing" textLength="135.4883" x="282.61" y="1167.9951">Analytics System</text></g><!--cluster External Services--><g class="cluster" data-qualified-name="Smart Mobility System.External Services" data-source-line="41" id="ent0029"><path d="M239.07,676 L377.3766,676 A3.75,3.75 0 0 1 379.8766,678.5 L386.8766,698.2969 L542.72,698.2969 A2.5,2.5 0 0 1 545.22,700.7969 L545.22,861.5 A2.5,2.5 0 0 1 542.72,864 L239.07,864 A2.5,2.5 0 0 1 236.57,861.5 L236.57,678.5 A2.5,2.5 0 0 1 239.07,676" fill="none" style="stroke:#000000;stroke-width:1.5;"/><line style="stroke:#000000;stroke-width:1.5;" x1="236.57" x2="386.8766" y1="698.2969" y2="698.2969"/><text fill="#000000" font-family="sans-serif" font-size="14" font-weight="bold" lengthAdjust="spacing" textLength="137.3066" x="240.57" y="690.9951">External Services</text></g><!--entity UC_Register--><g class="entity" data-qualified-name="Smart Mobility System.Subscription . Access.UC_Register" data-source-line="11" id="ent0007"><ellipse cx="390.9028" cy="100.0036" fill="#F1F1F1" rx="44.2028" ry="14.5236" style="stroke:#181818;stroke-width:0.5;"/><text fill="#000000" font-family="sans-serif" font-size="14" lengthAdjust="spacing" textLength="58.2695" x="361.768" y="104.6521">Register</text></g><!--entity UC_Login--><g class="entity" data-qualified-name="Smart Mobility System.Subscription . Access.UC_Login" data-source-line="12" id="ent0008"><ellipse cx="390.9004" cy="164.0036" fill="#F1F1F1" rx="29.8804" ry="14.5236" style="stroke:#181818;stroke-width:0.5;"/><text fill="#000000" font-family="sans-serif" font-size="14" lengthAdjust="spacing" textLength="38.0146" x="371.8931" y="168.6521">Login</text></g><!--entity UC_Subscription--><g class="entity" data-qualified-name="Smart Mobility System.Subscription . Access.UC_Subscription" data-source-line="13" id="ent0009"><ellipse cx="390.8977" cy="233.0015" fill="#F1F1F1" rx="87.0577" ry="19.8115" style="stroke:#181818;stroke-width:0.5;"/><text fill="#000000" font-family="sans-serif" font-size="14" lengthAdjust="spacing" textLength="147.0479" x="317.3738" y="237.65">Manage Subscription</text></g><!--entity UC_Search--><g class="entity" data-qualified-name="Smart Mobility System.Rental System.UC_Search" data-source-line="17" id="ent0011"><ellipse cx="390.9035" cy="344.0027" fill="#F1F1F1" rx="69.0635" ry="16.2127" style="stroke:#181818;stroke-width:0.5;"/><text fill="#000000" font-family="sans-serif" font-size="14" lengthAdjust="spacing" textLength="104.0088" x="338.8991" y="348.6511">Search Vehicle</text></g><!--entity UC_Filter--><g class="entity" data-qualified-name="Smart Mobility System.Rental System.UC_Filter" data-source-line="18" id="ent0012"><ellipse cx="832.2763" cy="349.9953" fill="#F1F1F1" rx="96.0763" ry="21.6153" style="stroke:#181818;stroke-width:0.5;"/><text fill="#000000" font-family="sans-serif" font-size="14" lengthAdjust="spacing" textLength="167.3711" x="748.5907" y="354.6437">Filter by Type/City/Price</text></g><!--entity UC_Reserve--><g class="entity" data-qualified-name="Smart Mobility System.Rental System.UC_Reserve" data-source-line="19" id="ent0013"><ellipse cx="390.8973" cy="412.0015" fill="#F1F1F1" rx="72.4573" ry="16.8915" style="stroke:#181818;stroke-width:0.5;"/><text fill="#000000" font-family="sans-serif" font-size="14" lengthAdjust="spacing" textLength="112.5059" x="334.6444" y="416.6499">Reserve Vehicle</text></g><!--entity UC_Unlock--><g class="entity" data-qualified-name="Smart Mobility System.Rental System.UC_Unlock" data-source-line="20" id="ent0014"><ellipse cx="390.9006" cy="480.0021" fill="#F1F1F1" rx="68.6606" ry="16.1321" style="stroke:#181818;stroke-width:0.5;"/><text fill="#000000" font-family="sans-serif" font-size="14" lengthAdjust="spacing" textLength="102.9834" x="339.409" y="484.6506">Unlock Vehicle</text></g><!--entity UC_Payment--><g class="entity" data-qualified-name="Smart Mobility System.Rental System.UC_Payment" data-source-line="21" id="ent0015"><ellipse cx="832.2813" cy="423.0023" fill="#F1F1F1" rx="68.9613" ry="16.1923" style="stroke:#181818;stroke-width:0.5;"/><text fill="#000000" font-family="sans-serif" font-size="14" lengthAdjust="spacing" textLength="103.749" x="780.4068" y="427.6507">Make Payment</text></g><!--entity UC_Return--><g class="entity" data-qualified-name="Smart Mobility System.Rental System.UC_Return" data-source-line="22" id="ent0016"><ellipse cx="390.9019" cy="546.9984" fill="#F1F1F1" rx="68.6419" ry="16.1284" style="stroke:#181818;stroke-width:0.5;"/><text fill="#000000" font-family="sans-serif" font-size="14" lengthAdjust="spacing" textLength="102.9355" x="339.4341" y="551.6468">Return Vehicle</text></g><!--entity UC_History--><g class="entity" data-qualified-name="Smart Mobility System.Rental System.UC_History" data-source-line="23" id="ent0017"><ellipse cx="390.8964" cy="616.9953" fill="#F1F1F1" rx="82.8764" ry="18.9753" style="stroke:#181818;stroke-width:0.5;"/><text fill="#000000" font-family="sans-serif" font-size="14" lengthAdjust="spacing" textLength="137.4092" x="322.1919" y="621.6437">View Rental History</text></g><!--entity UC_AddVehicle--><g class="entity" data-qualified-name="Smart Mobility System.Vehicle Management .Mobility Provider..UC_AddVehicle" data-source-line="27" id="ent0019"><ellipse cx="390.9029" cy="943.0026" fill="#F1F1F1" rx="86.2129" ry="19.6426" style="stroke:#181818;stroke-width:0.5;"/><text fill="#000000" font-family="sans-serif" font-size="14" lengthAdjust="spacing" textLength="145.1133" x="318.3463" y="947.651">Add/Remove Vehicle</text></g><!--entity UC_UpdateVehicle--><g class="entity" data-qualified-name="Smart Mobility System.Vehicle Management .Mobility Provider..UC_UpdateVehicle" data-source-line="28" id="ent0020"><ellipse cx="390.8979" cy="1017.0016" fill="#F1F1F1" rx="85.8079" ry="19.5616" style="stroke:#181818;stroke-width:0.5;"/><text fill="#000000" font-family="sans-serif" font-size="14" lengthAdjust="spacing" textLength="144.1836" x="318.8061" y="1021.65">Update Vehicle Data</text></g><!--entity UC_Monitor--><g class="entity" data-qualified-name="Smart Mobility System.Vehicle Management .Mobility Provider..UC_Monitor" data-source-line="29" id="ent0021"><ellipse cx="390.8951" cy="1091.997" fill="#F1F1F1" rx="91.8351" ry="20.767" style="stroke:#181818;stroke-width:0.5;"/><text fill="#000000" font-family="sans-serif" font-size="14" lengthAdjust="spacing" textLength="157.8828" x="311.9537" y="1096.6455">Monitor Vehicle Status</text></g><!--entity UC_RentalAnalytics--><g class="entity" data-qualified-name="Smart Mobility System.Analytics System.UC_RentalAnalytics" data-source-line="33" id="ent0023"><ellipse cx="390.8993" cy="1279.0039" fill="#F1F1F1" rx="88.8693" ry="20.1739" style="stroke:#181818;stroke-width:0.5;"/><text fill="#000000" font-family="sans-serif" font-size="14" lengthAdjust="spacing" textLength="151.1768" x="315.3109" y="1283.6523">View Rental Analytics</text></g><!--entity UC_RentCity--><g class="entity" data-qualified-name="Smart Mobility System.Analytics System.UC_RentCity" data-source-line="34" id="ent0024"><ellipse cx="832.2775" cy="1204.9955" fill="#F1F1F1" rx="72.2775" ry="16.8555" style="stroke:#181818;stroke-width:0.5;"/><text fill="#000000" font-family="sans-serif" font-size="14" lengthAdjust="spacing" textLength="112.0615" x="776.2467" y="1209.6439">Rentals per City</text></g><!--entity UC_RentType--><g class="entity" data-qualified-name="Smart Mobility System.Analytics System.UC_RentType" data-source-line="35" id="ent0025"><ellipse cx="832.2767" cy="1359.0013" fill="#F1F1F1" rx="101.0567" ry="22.6113" style="stroke:#181818;stroke-width:0.5;"/><text fill="#000000" font-family="sans-serif" font-size="14" lengthAdjust="spacing" textLength="178.3838" x="743.0848" y="1363.6498">Rentals per Mobility Type</text></g><!--entity UC_TotalRentals--><g class="entity" data-qualified-name="Smart Mobility System.Analytics System.UC_TotalRentals" data-source-line="36" id="ent0026"><ellipse cx="832.2818" cy="1278.9984" fill="#F1F1F1" rx="97.5418" ry="21.9084" style="stroke:#181818;stroke-width:0.5;"/><text fill="#000000" font-family="sans-serif" font-size="14" lengthAdjust="spacing" textLength="170.625" x="746.9693" y="1283.6468">Total Number of Rentals</text></g><!--entity UC_GatewayAnalytics--><g class="entity" data-qualified-name="Smart Mobility System.Analytics System.UC_GatewayAnalytics" data-source-line="37" id="ent0027"><ellipse cx="390.9015" cy="1409.9983" fill="#F1F1F1" rx="96.2915" ry="21.6583" style="stroke:#181818;stroke-width:0.5;"/><text fill="#000000" font-family="sans-serif" font-size="14" lengthAdjust="spacing" textLength="167.8496" x="306.9767" y="1414.6467">View Gateway Analytics</text></g><!--entity UC_ServiceStats--><g class="entity" data-qualified-name="Smart Mobility System.Analytics System.UC_ServiceStats" data-source-line="38" id="ent0028"><ellipse cx="832.2799" cy="1438.996" fill="#F1F1F1" rx="98.5299" ry="22.106" style="stroke:#181818;stroke-width:0.5;"/><text fill="#000000" font-family="sans-serif" font-size="14" lengthAdjust="spacing" textLength="172.8125" x="745.8737" y="1443.6444">Service Access Statistics</text></g><!--entity UC_Parking--><g class="entity" data-qualified-name="Smart Mobility System.External Services.UC_Parking" data-source-line="42" id="ent0030"><ellipse cx="390.8985" cy="731.9957" fill="#F1F1F1" rx="93.3785" ry="21.0757" style="stroke:#181818;stroke-width:0.5;"/><text fill="#000000" font-family="sans-serif" font-size="14" lengthAdjust="spacing" textLength="161.3486" x="310.2242" y="736.6441">Access Parking Service</text></g><!--entity UC_PublicTransport--><g class="entity" data-qualified-name="Smart Mobility System.External Services.UC_PublicTransport" data-source-line="43" id="ent0031"><ellipse cx="390.9042" cy="818.0048" fill="#F1F1F1" rx="138.3242" ry="30.0648" style="stroke:#181818;stroke-width:0.5;"/><text fill="#000000" font-family="sans-serif" font-size="14" lengthAdjust="spacing" textLength="258.0908" x="261.8588" y="822.6533">Access Public Transportation Service</text></g><!--entity RU--><g class="entity" data-qualified-name="RU" data-source-line="4" id="ent0002"><ellipse cx="69.7838" cy="416.35" fill="#F1F1F1" rx="8" ry="8" style="stroke:#181818;stroke-width:0.5;"/><path d="M69.7838,424.35 L69.7838,451.35 M56.7838,432.35 L82.7838,432.35 M69.7838,451.35 L56.7838,466.35 M69.7838,451.35 L82.7838,466.35" fill="none" style="stroke:#181818;stroke-width:0.5;"/><text fill="#000000" font-family="sans-serif" font-size="14" lengthAdjust="spacing" textLength="74.3477" x="32.61" y="480.8451">Commuter</text></g><!--entity MP--><g class="entity" data-qualified-name="MP" data-source-line="5" id="ent0003"><ellipse cx="69.7896" cy="1025.35" fill="#F1F1F1" rx="8" ry="8" style="stroke:#181818;stroke-width:0.5;"/><path d="M69.7896,1033.35 L69.7896,1060.35 M56.7896,1041.35 L82.7896,1041.35 M69.7896,1060.35 L56.7896,1075.35 M69.7896,1060.35 L82.7896,1075.35" fill="none" style="stroke:#181818;stroke-width:0.5;"/><text fill="#000000" font-family="sans-serif" font-size="14" lengthAdjust="spacing" textLength="117.6191" x="10.98" y="1089.8451">Mobility Provider</text></g><!--entity Admin--><g class="entity" data-qualified-name="Admin" data-source-line="6" id="ent0004"><ellipse cx="69.7861" cy="1312.35" fill="#F1F1F1" rx="8" ry="8" style="stroke:#181818;stroke-width:0.5;"/><path d="M69.7861,1320.35 L69.7861,1347.35 M56.7861,1328.35 L82.7861,1328.35 M69.7861,1347.35 L56.7861,1362.35 M69.7861,1347.35 L82.7861,1362.35" fill="none" style="stroke:#181818;stroke-width:0.5;"/><text fill="#000000" font-family="sans-serif" font-size="14" lengthAdjust="spacing" textLength="127.5723" x="6" y="1376.8451">City Administrator</text></g><!--link RU to UC_Login--><g class="link" data-entity-1="ent0002" data-entity-2="ent0008" data-link-type="dependency" data-source-line="48" id="lnk32"><path d="M77.88,407.62 C90.39,351.52 122.01,248.13 192.06,196 C242.3,158.61 313.7148,157.5591 355.2348,160.4791" fill="none" id="RU-to-UC_Login" style="stroke:#181818;stroke-width:1;"/><polygon fill="#181818" points="361.22,160.9,352.5228,156.2785,356.2323,160.5492,351.9616,164.2588,361.22,160.9" style="stroke:#181818;stroke-width:1;"/></g><!--link RU to UC_Register--><g class="link" data-entity-1="ent0002" data-entity-2="ent0007" data-link-type="dependency" data-source-line="49" id="lnk33"><path d="M73.67,407.56 C80.92,340.29 106.04,201.74 192.06,132 C236.25,96.17 298.6992,92.7282 342.3892,95.1482" fill="none" id="RU-to-UC_Register" style="stroke:#181818;stroke-width:1;"/><polygon fill="#181818" points="348.38,95.48,339.615,90.9884,343.3877,95.2035,339.1726,98.9761,348.38,95.48" style="stroke:#181818;stroke-width:1;"/></g><!--link RU to UC_Subscription--><g class="link" data-entity-1="ent0002" data-entity-2="ent0009" data-link-type="dependency" data-source-line="50" id="lnk34"><path d="M97.88,407.52 C120.29,378.06 154.45,338.15 192.06,312 C235.33,281.91 285.995,262.6033 327.495,249.8433" fill="none" id="RU-to-UC_Subscription" style="stroke:#181818;stroke-width:1;"/><polygon fill="#181818" points="333.23,248.08,323.4519,246.9017,328.4508,249.5495,325.803,254.5484,333.23,248.08" style="stroke:#181818;stroke-width:1;"/></g><!--link RU to UC_Search--><g class="link" data-entity-1="ent0002" data-entity-2="ent0011" data-link-type="dependency" data-source-line="51" id="lnk35"><path d="M107.44,421.09 C130.72,406.39 162.03,388.64 192.06,378 C235.09,362.75 279.9325,354.9133 319.2725,350.2033" fill="none" id="RU-to-UC_Search" style="stroke:#181818;stroke-width:1;"/><polygon fill="#181818" points="325.23,349.49,315.8183,346.5883,320.2655,350.0844,316.7693,354.5315,325.23,349.49" style="stroke:#181818;stroke-width:1;"/></g><!--link RU to UC_Reserve--><g class="link" data-entity-1="ent0002" data-entity-2="ent0013" data-link-type="dependency" data-source-line="52" id="lnk36"><path d="M107.39,442.1 C160.19,436.47 252.5937,426.625 318.1737,419.645" fill="none" id="RU-to-UC_Reserve" style="stroke:#181818;stroke-width:1;"/><polygon fill="#181818" points="324.14,419.01,314.7672,415.985,319.1681,419.5392,315.6139,423.9401,324.14,419.01" style="stroke:#181818;stroke-width:1;"/></g><!--link RU to UC_Unlock--><g class="link" data-entity-1="ent0002" data-entity-2="ent0014" data-link-type="dependency" data-source-line="53" id="lnk37"><path d="M107.39,449.9 C161.17,455.63 256.2637,465.7646 321.8037,472.7446" fill="none" id="RU-to-UC_Unlock" style="stroke:#181818;stroke-width:1;"/><polygon fill="#181818" points="327.77,473.38,319.2442,468.4494,322.7981,472.8505,318.397,476.4044,327.77,473.38" style="stroke:#181818;stroke-width:1;"/></g><!--link RU to UC_Return--><g class="link" data-entity-1="ent0002" data-entity-2="ent0016" data-link-type="dependency" data-source-line="54" id="lnk38"><path d="M107.43,470.97 C130.7,485.68 162,503.43 192.06,514 C235.09,529.13 279.9285,536.7411 319.2685,541.2211" fill="none" id="RU-to-UC_Return" style="stroke:#181818;stroke-width:1;"/><polygon fill="#181818" points="325.23,541.9,316.7404,536.9074,320.2621,541.3343,315.8352,544.856,325.23,541.9" style="stroke:#181818;stroke-width:1;"/></g><!--link RU to UC_History--><g class="link" data-entity-1="ent0002" data-entity-2="ent0017" data-link-type="dependency" data-source-line="55" id="lnk39"><path d="M94.72,484.41 C116.26,515.56 150.8,557.95 192.06,581 C227.41,600.75 265.3875,609.3203 302.8675,613.5303" fill="none" id="RU-to-UC_History" style="stroke:#181818;stroke-width:1;"/><polygon fill="#181818" points="308.83,614.2,300.3327,609.2204,303.8612,613.6419,299.4397,617.1704,308.83,614.2" style="stroke:#181818;stroke-width:1;"/></g><!--link RU to UC_Parking--><g class="link" data-entity-1="ent0002" data-entity-2="ent0030" data-link-type="dependency" data-source-line="56" id="lnk40"><path d="M84.56,484.53 C102.68,530.21 138.63,605.93 192.06,652 C229.8,684.54 276.7281,703.2964 318.2481,715.3564" fill="none" id="RU-to-UC_Parking" style="stroke:#181818;stroke-width:1;"/><polygon fill="#181818" points="324.01,717.03,316.4829,710.6784,319.2084,715.6353,314.2515,718.3608,324.01,717.03" style="stroke:#181818;stroke-width:1;"/></g><!--link RU to UC_PublicTransport--><g class="link" data-entity-1="ent0002" data-entity-2="ent0031" data-link-type="dependency" data-source-line="57" id="lnk41"><path d="M73.71,484.56 C81.04,552.92 106.3,695.25 192.06,771 C211.71,788.35 230.828,797.9519 256.268,805.1719" fill="none" id="RU-to-UC_PublicTransport" style="stroke:#181818;stroke-width:1;"/><polygon fill="#181818" points="262.04,806.81,254.474,800.5048,257.23,805.4449,252.2898,808.2008,262.04,806.81" style="stroke:#181818;stroke-width:1;"/></g><!--link MP to UC_AddVehicle--><g class="link" data-entity-1="ent0003" data-entity-2="ent0019" data-link-type="dependency" data-source-line="59" id="lnk42"><path d="M123.48,1016.52 C144.01,1003.14 168.28,989.21 192.06,980 C230.02,965.3 268.4633,957.1889 305.5633,951.7589" fill="none" id="MP-to-UC_AddVehicle" style="stroke:#181818;stroke-width:1;"/><polygon fill="#181818" points="311.5,950.89,302.0156,948.2355,306.5527,951.6141,303.1741,956.1512,311.5,950.89" style="stroke:#181818;stroke-width:1;"/></g><!--link MP to UC_UpdateVehicle--><g class="link" data-entity-1="ent0003" data-entity-2="ent0020" data-link-type="dependency" data-source-line="60" id="lnk43"><path d="M128.94,1048.07 C180.9,1041.89 251.382,1033.4888 308.122,1026.7388" fill="none" id="MP-to-UC_UpdateVehicle" style="stroke:#181818;stroke-width:1;"/><polygon fill="#181818" points="314.08,1026.03,304.6705,1023.1212,309.115,1026.6207,305.6155,1031.0652,314.08,1026.03" style="stroke:#181818;stroke-width:1;"/></g><!--link MP to UC_Monitor--><g class="link" data-entity-1="ent0003" data-entity-2="ent0021" data-link-type="dependency" data-source-line="61" id="lnk44"><path d="M128.94,1061.74 C179.19,1067.57 246.3799,1075.3592 302.4599,1081.8592" fill="none" id="MP-to-UC_Monitor" style="stroke:#181818;stroke-width:1;"/><polygon fill="#181818" points="308.42,1082.55,299.9404,1077.5404,303.4533,1081.9743,299.0193,1085.4872,308.42,1082.55" style="stroke:#181818;stroke-width:1;"/></g><!--link MP to UC_RentalAnalytics--><g class="link" data-entity-1="ent0003" data-entity-2="ent0023" data-link-type="dependency" data-source-line="62" id="lnk45"><path d="M125.64,1093.51 C194.43,1141.79 304.779,1219.2529 357.349,1256.1529" fill="none" id="MP-to-UC_RentalAnalytics" style="stroke:#181818;stroke-width:1;"/><polygon fill="#181818" points="362.26,1259.6,357.1916,1251.1554,358.1675,1256.7274,352.5955,1257.7033,362.26,1259.6" style="stroke:#181818;stroke-width:1;"/></g><!--link Admin to UC_RentalAnalytics--><g class="link" data-entity-1="ent0004" data-entity-2="ent0023" data-link-type="dependency" data-source-line="64" id="lnk46"><path d="M133.83,1329.55 C188.32,1318.8 260.9837,1304.4525 316.6837,1293.4525" fill="none" id="Admin-to-UC_RentalAnalytics" style="stroke:#181818;stroke-width:1;"/><polygon fill="#181818" points="322.57,1292.29,312.9656,1290.1095,317.6647,1293.2587,314.5155,1297.9579,322.57,1292.29" style="stroke:#181818;stroke-width:1;"/></g><!--link Admin to UC_GatewayAnalytics--><g class="link" data-entity-1="ent0004" data-entity-2="ent0027" data-link-type="dependency" data-source-line="65" id="lnk47"><path d="M133.83,1355.43 C187.42,1366.85 258.3918,1381.9794 313.9018,1393.8094" fill="none" id="Admin-to-UC_GatewayAnalytics" style="stroke:#181818;stroke-width:1;"/><polygon fill="#181818" points="319.77,1395.06,311.8014,1389.2719,314.8798,1394.0178,310.1339,1397.0962,319.77,1395.06" style="stroke:#181818;stroke-width:1;"/></g><!--link UC_Search to UC_Filter--><g class="link" data-entity-1="ent0011" data-entity-2="ent0012" data-link-type="dependency" data-source-line="68" id="lnk48"><path d="M460.07,344.93 C534.07,345.94 646.7906,347.4778 729.9906,348.6178" fill="none" id="UC_Search-to-UC_Filter" style="stroke:#181818;stroke-width:1;"/><polygon fill="#181818" points="735.99,348.7,727.0456,344.5771,730.9905,348.6315,726.936,352.5763,735.99,348.7" style="stroke:#181818;stroke-width:1;"/><text fill="#000000" font-family="sans-serif" font-size="13" lengthAdjust="spacing" textLength="63.0068" x="617.22" y="344.0669">&#171;include&#187;</text></g><!--link UC_Reserve to UC_Payment--><g class="link" data-entity-1="ent0013" data-entity-2="ent0015" data-link-type="dependency" data-source-line="69" id="lnk49"><path d="M462.98,413.78 C545.8,415.85 675.6719,419.0992 757.1919,421.1492" fill="none" id="UC_Reserve-to-UC_Payment" style="stroke:#181818;stroke-width:1;"/><polygon fill="#181818" points="763.19,421.3,754.2934,417.075,758.1916,421.1743,754.0923,425.0725,763.19,421.3" style="stroke:#181818;stroke-width:1;"/><text fill="#000000" font-family="sans-serif" font-size="13" lengthAdjust="spacing" textLength="63.0068" x="617.22" y="414.0669">&#171;include&#187;</text></g><!--link UC_RentalAnalytics to UC_RentCity--><g class="link" data-entity-1="ent0023" data-entity-2="ent0024" data-link-type="dependency" data-source-line="70" id="lnk50"><path d="M463.47,1266.95 C549.67,1252.43 686.9133,1229.3165 766.8333,1215.8565" fill="none" id="UC_RentalAnalytics-to-UC_RentCity" style="stroke:#181818;stroke-width:1;"/><polygon fill="#181818" points="772.75,1214.86,763.2107,1212.4103,767.8194,1215.6904,764.5393,1220.2992,772.75,1214.86" style="stroke:#181818;stroke-width:1;"/><text fill="#000000" font-family="sans-serif" font-size="13" lengthAdjust="spacing" textLength="63.0068" x="617.22" y="1228.0669">&#171;include&#187;</text></g><!--link UC_RentalAnalytics to UC_RentType--><g class="link" data-entity-1="ent0023" data-entity-2="ent0025" data-link-type="dependency" data-source-line="71" id="lnk51"><path d="M461.03,1291.59 C540.3,1306.02 664.057,1328.5554 747.007,1343.6554" fill="none" id="UC_RentalAnalytics-to-UC_RentType" style="stroke:#181818;stroke-width:1;"/><polygon fill="#181818" points="752.91,1344.73,744.7719,1339.1828,747.9908,1343.8345,743.3391,1347.0535,752.91,1344.73" style="stroke:#181818;stroke-width:1;"/><text fill="#000000" font-family="sans-serif" font-size="13" lengthAdjust="spacing" textLength="63.0068" x="617.22" y="1318.0669">&#171;include&#187;</text></g><!--link UC_RentalAnalytics to UC_TotalRentals--><g class="link" data-entity-1="ent0023" data-entity-2="ent0026" data-link-type="dependency" data-source-line="72" id="lnk52"><path d="M480.02,1279 C553.67,1279 652.56,1279 728.52,1279" fill="none" id="UC_RentalAnalytics-to-UC_TotalRentals" style="stroke:#181818;stroke-width:1;"/><polygon fill="#181818" points="734.52,1279,725.52,1275,729.52,1279,725.52,1283,734.52,1279" style="stroke:#181818;stroke-width:1;"/><text fill="#000000" font-family="sans-serif" font-size="13" lengthAdjust="spacing" textLength="63.0068" x="617.22" y="1275.0669">&#171;include&#187;</text></g><!--link UC_GatewayAnalytics to UC_ServiceStats--><g class="link" data-entity-1="ent0027" data-entity-2="ent0028" data-link-type="dependency" data-source-line="73" id="lnk53"><path d="M483.74,1416.06 C558.08,1420.97 656.3831,1427.4544 731.2931,1432.4044" fill="none" id="UC_GatewayAnalytics-to-UC_ServiceStats" style="stroke:#181818;stroke-width:1;"/><polygon fill="#181818" points="737.28,1432.8,728.5633,1428.2153,732.2909,1432.4703,728.0358,1436.1979,737.28,1432.8" style="stroke:#181818;stroke-width:1;"/><text fill="#000000" font-family="sans-serif" font-size="13" lengthAdjust="spacing" textLength="63.0068" x="617.22" y="1422.0669">&#171;include&#187;</text></g><?plantuml-src bLN9Rjim4BtpAmO-T3a4Jgz54C18Lw0k32-v1ZJ5o8GbKY2ff4BHVoz9SPLieFMDRzuZPvvcnWrzrg05I5QVD5HCKgAPu4YT6U-mn2r8pC-ATl3XzXOXJBIGi7WGRTjhAXU05MmF0LwB8skO7c0ZnGkhV7ozYJ8RMrKjuqnfYGtc20v1o3wDUTrGMEnQB3N4wtQ3qhHTm6-403fCphYsfFweY6ITpHVUm8eGgfGbWVdrYXAi36jBQ_EOJ-Nmy1JE9Uk7g1aF57SeuslCxPlvau6TOqRqfyXnIxd6JLP0SUkEOabEy4XFZ3GqNkZGalc5DIPdE0wm7pgwj4OkDvAHA1e9qz8LbIzqUh-7I-w1DuASfzGHdLfnfh31GsjA2pn_d3wlUyddhrkqP3uo-WhUgc_cwmWv1Be_peprjyBuOUpZy6xMVkzdZg-gQhcbhPYxOY8UcHZJLLX7Ddp26aTtNEYYQYquioqVP3kDTQ-2q4TdHQquRWRDYBhMCBbHaPoSjNY4fn_31XLqfejiz-GYUxxEZgxQpijbzbpAzi8czhDlZqOdddscCK4NzjY5khuQCr_nC2_C1wvKjZFDR0R1pxzpslHC9lS46r0pop__CcF3xOYEhFa2yVTki3GhiGwyrFaElYpfZmqZi3SRL7L2siJCfffUu4YHun8qARw5bLA2CATHQ7k0cvlxj9pIEUwp11KRAOF7lP9BnqMG43_lESLDQmB2F2OaE90XavBGUXD2sPGbi9oZX8SnISYqnP7xwxWMBOAp9Z8MV-UawIiAIx1jm2kGj1aDFx5EeUXPkCDluOzmTyT6wVqzIaOcHzmslCGh4ippTd-D_oEmq_VFWdpovgAfDQbXqk2Kghy0?></g></svg>